# MagicaVoxel @ Ephtracy

# material
mtllib idle.mtl
usemtl palette

# normals
vn -1 0 0
vn 1 0 0
vn 0 0 1
vn 0 0 -1
vn 0 -1 0
vn 0 1 0

# texcoords
vt 0.0292969 0.5
vt 0.0332031 0.5
vt 0.0605469 0.5
vt 0.0917969 0.5
vt 0.123047 0.5
vt 0.154297 0.5
vt 0.779297 0.5
vt 0.810547 0.5
vt 0.869141 0.5
vt 0.962891 0.5
vt 0.994141 0.5

# verts
v -8 4 2
v -8 4 -0
v -8 6 6
v -8 6 4
v -8 6 -0
v -8 6 -2
v -8 8 4
v -8 8 2
v -8 10 6
v -8 10 4
v -8 10 2
v -8 10 -0
v -8 12 2
v -8 12 -0
v -8 14 2
v -8 14 -0
v -8 16 2
v -8 16 -0
v -8 20 4
v -8 20 -2
v -7 16 6
v -7 16 4
v -7 18 6
v -7 18 4
v -6 2 4
v -6 2 -2
v -6 4 6
v -6 4 4
v -6 4 2
v -6 4 -0
v -6 4 -2
v -6 4 -4
v -6 6 6
v -6 6 4
v -6 6 2
v -6 6 -0
v -6 6 -2
v -6 6 -4
v -6 8 4
v -6 8 2
v -6 8 -4
v -6 8 -6
v -6 10 6
v -6 10 4
v -6 10 -2
v -6 10 -4
v -6 12 6
v -6 12 4
v -6 12 2
v -6 12 -0
v -6 12 -4
v -6 12 -6
v -6 14 2
v -6 14 -0
v -6 18 6
v -6 18 4
v -6 20 6
v -6 20 4
v -6 20 -2
v -6 20 -4
v -6 22 4
v -6 22 -2
v -4 0 2
v -4 0 -0
v -4 2 2
v -4 2 -0
v -4 12 -4
v -4 12 -6
v -4 20 -2
v -4 20 -4
v -4 20 -6
v -4 22 -2
v -4 22 -4
v -2 6 -4
v -2 6 -6
v -2 8 -4
v -2 8 -6
v 2 0 2
v 2 0 -0
v 2 2 4
v 2 2 2
v 2 2 -0
v 2 2 -2
v 2 4 4
v 2 4 -2
v 2 10 6
v 2 10 4
v 2 12 6
v 2 12 4
v 2 20 4
v 2 20 2
v 2 22 4
v 2 22 2
v 4 18 6
v 4 18 4
v 4 19 4
v 4 20 6
v 4 20 4
v 5 16 6
v 5 16 4
v 5 18 6
v 5 18 4
v -5 16 6
v -5 16 4
v -5 18 6
v -5 18 4
v -4 18 6
v -4 18 4
v -4 19 4
v -4 20 6
v -4 20 4
v -2 0 2
v -2 0 -0
v -2 2 4
v -2 2 2
v -2 2 -0
v -2 2 -2
v -2 4 4
v -2 4 -2
v -2 10 6
v -2 10 4
v -2 12 6
v -2 12 4
v -2 20 4
v -2 20 2
v -2 22 4
v -2 22 2
v 2 6 -4
v 2 6 -6
v 2 8 -4
v 2 8 -6
v 4 0 2
v 4 0 -0
v 4 2 2
v 4 2 -0
v 4 12 -4
v 4 12 -6
v 4 20 -2
v 4 20 -4
v 4 20 -6
v 4 22 -2
v 4 22 -4
v 6 2 4
v 6 2 -2
v 6 4 6
v 6 4 4
v 6 4 2
v 6 4 -0
v 6 4 -2
v 6 4 -4
v 6 6 6
v 6 6 4
v 6 6 2
v 6 6 -0
v 6 6 -2
v 6 6 -4
v 6 8 4
v 6 8 2
v 6 8 -4
v 6 8 -6
v 6 10 6
v 6 10 4
v 6 10 -2
v 6 10 -4
v 6 12 6
v 6 12 4
v 6 12 2
v 6 12 -0
v 6 12 -4
v 6 12 -6
v 6 14 2
v 6 14 -0
v 6 18 6
v 6 18 4
v 6 20 6
v 6 20 4
v 6 20 -2
v 6 20 -4
v 6 22 4
v 6 22 -2
v 7 16 6
v 7 16 4
v 7 18 6
v 7 18 4
v 8 4 2
v 8 4 -0
v 8 6 6
v 8 6 4
v 8 6 -0
v 8 6 -2
v 8 8 4
v 8 8 2
v 8 10 6
v 8 10 4
v 8 10 2
v 8 10 -0
v 8 12 2
v 8 12 -0
v 8 14 2
v 8 14 -0
v 8 16 2
v 8 16 -0
v 8 20 4
v 8 20 -2
v -8 6 6
v -8 10 6
v -7 16 6
v -7 18 6
v -6 4 6
v -6 6 6
v -6 10 6
v -6 12 6
v -6 18 6
v -6 20 6
v -5 16 6
v -5 18 6
v -4 18 6
v -4 20 6
v -2 10 6
v -2 12 6
v 2 10 6
v 2 12 6
v 4 18 6
v 4 20 6
v 5 16 6
v 5 18 6
v 6 4 6
v 6 6 6
v 6 10 6
v 6 12 6
v 6 18 6
v 6 20 6
v 7 16 6
v 7 18 6
v 8 6 6
v 8 10 6
v -8 10 4
v -8 20 4
v -7 16 4
v -7 18 4
v -6 2 4
v -6 4 4
v -6 10 4
v -6 12 4
v -6 16 4
v -6 18 4
v -6 20 4
v -6 22 4
v -5 16 4
v -5 18 4
v -4 14 4
v -4 16 4
v -4 18 4
v -4 19 4
v -4 20 4
v -2 2 4
v -2 4 4
v -2 10 4
v -2 12 4
v -2 14 4
v -2 16 4
v -2 19 4
v -2 20 4
v -2 22 4
v 2 2 4
v 2 4 4
v 2 10 4
v 2 12 4
v 2 14 4
v 2 16 4
v 2 19 4
v 2 20 4
v 2 22 4
v 4 14 4
v 4 16 4
v 4 18 4
v 4 19 4
v 4 20 4
v 5 16 4
v 5 18 4
v 6 2 4
v 6 4 4
v 6 10 4
v 6 12 4
v 6 16 4
v 6 18 4
v 6 20 4
v 6 22 4
v 7 16 4
v 7 18 4
v 8 10 4
v 8 20 4
v -8 4 2
v -8 8 2
v -6 4 2
v -6 6 2
v -6 8 2
v -4 0 2
v -4 2 2
v -2 0 2
v -2 2 2
v -2 20 2
v -2 22 2
v 2 0 2
v 2 2 2
v 2 20 2
v 2 22 2
v 4 0 2
v 4 2 2
v 6 4 2
v 6 6 2
v 6 8 2
v 8 4 2
v 8 8 2
v -8 12 -0
v -8 14 -0
v -6 12 -0
v -6 14 -0
v 6 12 -0
v 6 14 -0
v 8 12 -0
v 8 14 -0
v -8 6 4
v -8 8 4
v -6 6 4
v -6 8 4
v 6 6 4
v 6 8 4
v 8 6 4
v 8 8 4
v -8 12 2
v -8 14 2
v -6 12 2
v -6 14 2
v 6 12 2
v 6 14 2
v 8 12 2
v 8 14 2
v -8 4 -0
v -8 6 -0
v -6 4 -0
v -6 6 -0
v -4 0 -0
v -4 2 -0
v -2 0 -0
v -2 2 -0
v 2 0 -0
v 2 2 -0
v 4 0 -0
v 4 2 -0
v 6 4 -0
v 6 6 -0
v 8 4 -0
v 8 6 -0
v -8 6 -2
v -8 20 -2
v -6 2 -2
v -6 4 -2
v -6 6 -2
v -6 10 -2
v -6 20 -2
v -6 22 -2
v -4 20 -2
v -4 22 -2
v -2 2 -2
v -2 4 -2
v 2 2 -2
v 2 4 -2
v 4 20 -2
v 4 22 -2
v 6 2 -2
v 6 4 -2
v 6 6 -2
v 6 10 -2
v 6 20 -2
v 6 22 -2
v 8 6 -2
v 8 20 -2
v -6 4 -4
v -6 6 -4
v -6 8 -4
v -6 12 -4
v -6 20 -4
v -4 12 -4
v -4 20 -4
v -4 22 -4
v -2 6 -4
v -2 8 -4
v 2 6 -4
v 2 8 -4
v 4 12 -4
v 4 20 -4
v 4 22 -4
v 6 4 -4
v 6 6 -4
v 6 8 -4
v 6 12 -4
v 6 20 -4
v -6 8 -6
v -6 12 -6
v -4 12 -6
v -4 20 -6
v -2 6 -6
v -2 8 -6
v 2 6 -6
v 2 8 -6
v 4 12 -6
v 4 20 -6
v 6 8 -6
v 6 12 -6
v -4 0 2
v -2 0 2
v 2 0 2
v 4 0 2
v -4 0 -0
v -2 0 -0
v 2 0 -0
v 4 0 -0
v -6 2 4
v -2 2 4
v 2 2 4
v 6 2 4
v -4 2 2
v -2 2 2
v 2 2 2
v 4 2 2
v -4 2 -0
v -2 2 -0
v 2 2 -0
v 4 2 -0
v -6 2 -2
v -2 2 -2
v 2 2 -2
v 6 2 -2
v -6 4 6
v 6 4 6
v -6 4 4
v -2 4 4
v 2 4 4
v 6 4 4
v -8 4 2
v -6 4 2
v 6 4 2
v 8 4 2
v -8 4 -0
v -6 4 -0
v 6 4 -0
v 8 4 -0
v -6 4 -2
v -2 4 -2
v 2 4 -2
v 6 4 -2
v -6 4 -4
v 6 4 -4
v -8 6 6
v -6 6 6
v 6 6 6
v 8 6 6
v -8 6 4
v -6 6 4
v 6 6 4
v 8 6 4
v -8 6 -0
v -6 6 -0
v 6 6 -0
v 8 6 -0
v -8 6 -2
v -6 6 -2
v 6 6 -2
v 8 6 -2
v -2 6 -4
v 2 6 -4
v -2 6 -6
v 2 6 -6
v -8 8 4
v -6 8 4
v 6 8 4
v 8 8 4
v -8 8 2
v -6 8 2
v 6 8 2
v 8 8 2
v -6 8 -4
v -2 8 -4
v 2 8 -4
v 6 8 -4
v -6 8 -6
v -2 8 -6
v 2 8 -6
v 6 8 -6
v -8 14 2
v -6 14 2
v 6 14 2
v 8 14 2
v -8 14 -0
v -6 14 -0
v 6 14 -0
v 8 14 -0
v -7 16 6
v -5 16 6
v 5 16 6
v 7 16 6
v -7 16 4
v -6 16 4
v -5 16 4
v 5 16 4
v 6 16 4
v 7 16 4
v -5 18 6
v -4 18 6
v 4 18 6
v 5 18 6
v -5 18 4
v -4 18 4
v 4 18 4
v 5 18 4
v -8 10 6
v -6 10 6
v -2 10 6
v 2 10 6
v 6 10 6
v 8 10 6
v -8 10 4
v -6 10 4
v -2 10 4
v 2 10 4
v 6 10 4
v 8 10 4
v -6 12 6
v -2 12 6
v 2 12 6
v 6 12 6
v -6 12 4
v -2 12 4
v 2 12 4
v 6 12 4
v -8 12 2
v -6 12 2
v 6 12 2
v 8 12 2
v -8 12 -0
v -6 12 -0
v 6 12 -0
v 8 12 -0
v -6 12 -4
v -4 12 -4
v 4 12 -4
v 6 12 -4
v -6 12 -6
v -4 12 -6
v 4 12 -6
v 6 12 -6
v -7 18 6
v -6 18 6
v 6 18 6
v 7 18 6
v -7 18 4
v -6 18 4
v 6 18 4
v 7 18 4
v -6 20 6
v -4 20 6
v 4 20 6
v 6 20 6
v -8 20 4
v -6 20 4
v -4 20 4
v -2 20 4
v 2 20 4
v 4 20 4
v 6 20 4
v 8 20 4
v -2 20 2
v 2 20 2
v -8 20 -2
v -6 20 -2
v -4 20 -2
v 4 20 -2
v 6 20 -2
v 8 20 -2
v -6 20 -4
v -4 20 -4
v 4 20 -4
v 6 20 -4
v -4 20 -6
v 4 20 -6
v -6 22 4
v -2 22 4
v 2 22 4
v 6 22 4
v -2 22 2
v 2 22 2
v -6 22 -2
v -4 22 -2
v 4 22 -2
v 6 22 -2
v -4 22 -4
v 4 22 -4

# faces
f 5/2/1 2/2/1 1/2/1
f 7/1/1 4/1/1 3/1/1
f 8/2/1 5/2/1 1/2/1
f 9/1/1 7/1/1 3/1/1
f 9/1/1 8/1/1 7/1/1
f 10/1/1 8/1/1 9/1/1
f 11/2/1 5/2/1 8/2/1
f 11/1/1 8/1/1 10/1/1
f 12/1/1 6/1/1 5/1/1
f 12/2/1 5/2/1 11/2/1
f 13/1/1 11/1/1 10/1/1
f 13/4/1 12/4/1 11/4/1
f 14/1/1 6/1/1 12/1/1
f 14/4/1 12/4/1 13/4/1
f 15/1/1 13/1/1 10/1/1
f 16/1/1 6/1/1 14/1/1
f 17/1/1 15/1/1 10/1/1
f 17/3/1 16/3/1 15/3/1
f 18/1/1 6/1/1 16/1/1
f 18/3/1 16/3/1 17/3/1
f 19/1/1 17/1/1 10/1/1
f 19/1/1 18/1/1 17/1/1
f 20/1/1 6/1/1 18/1/1
f 20/1/1 18/1/1 19/1/1
f 23/1/1 22/1/1 21/1/1
f 24/1/1 22/1/1 23/1/1
f 28/5/1 26/5/1 25/5/1
f 29/5/1 26/5/1 28/5/1
f 30/5/1 26/5/1 29/5/1
f 31/5/1 26/5/1 30/5/1
f 33/5/1 28/5/1 27/5/1
f 33/5/1 29/5/1 28/5/1
f 34/5/1 29/5/1 33/5/1
f 35/5/1 29/5/1 34/5/1
f 36/5/1 32/5/1 31/5/1
f 36/5/1 31/5/1 30/5/1
f 37/5/1 32/5/1 36/5/1
f 38/5/1 32/5/1 37/5/1
f 39/4/1 35/4/1 34/4/1
f 40/4/1 35/4/1 39/4/1
f 41/4/1 38/4/1 37/4/1
f 45/4/1 41/4/1 37/4/1
f 46/1/1 42/1/1 41/1/1
f 46/4/1 41/4/1 45/4/1
f 47/4/1 44/4/1 43/4/1
f 48/4/1 44/4/1 47/4/1
f 51/1/1 42/1/1 46/1/1
f 51/1/1 46/1/1 45/1/1
f 52/1/1 42/1/1 51/1/1
f 53/2/1 50/2/1 49/2/1
f 54/2/1 50/2/1 53/2/1
f 57/1/1 56/1/1 55/1/1
f 58/1/1 56/1/1 57/1/1
f 59/1/1 51/1/1 45/1/1
f 60/1/1 51/1/1 59/1/1
f 61/1/1 59/1/1 58/1/1
f 62/1/1 59/1/1 61/1/1
f 65/6/1 64/6/1 63/6/1
f 66/6/1 64/6/1 65/6/1
f 70/1/1 68/1/1 67/1/1
f 71/1/1 68/1/1 70/1/1
f 72/1/1 70/1/1 69/1/1
f 73/1/1 70/1/1 72/1/1
f 76/1/1 75/1/1 74/1/1
f 77/1/1 75/1/1 76/1/1
f 81/6/1 79/6/1 78/6/1
f 82/6/1 79/6/1 81/6/1
f 84/5/1 81/5/1 80/5/1
f 84/5/1 83/5/1 82/5/1
f 84/5/1 82/5/1 81/5/1
f 85/5/1 83/5/1 84/5/1
f 88/4/1 87/4/1 86/4/1
f 89/4/1 87/4/1 88/4/1
f 92/1/1 91/1/1 90/1/1
f 93/1/1 91/1/1 92/1/1
f 96/1/1 95/1/1 94/1/1
f 97/1/1 96/1/1 94/1/1
f 98/1/1 96/1/1 97/1/1
f 101/1/1 100/1/1 99/1/1
f 102/1/1 100/1/1 101/1/1
f 103/1/2 104/1/2 105/1/2
f 105/1/2 104/1/2 106/1/2
f 107/1/2 108/1/2 109/1/2
f 107/1/2 109/1/2 110/1/2
f 110/1/2 109/1/2 111/1/2
f 112/6/2 113/6/2 115/6/2
f 115/6/2 113/6/2 116/6/2
f 114/5/2 115/5/2 118/5/2
f 116/5/2 117/5/2 118/5/2
f 115/5/2 116/5/2 118/5/2
f 118/5/2 117/5/2 119/5/2
f 120/4/2 121/4/2 122/4/2
f 122/4/2 121/4/2 123/4/2
f 124/1/2 125/1/2 126/1/2
f 126/1/2 125/1/2 127/1/2
f 128/1/2 129/1/2 130/1/2
f 130/1/2 129/1/2 131/1/2
f 132/6/2 133/6/2 134/6/2
f 134/6/2 133/6/2 135/6/2
f 136/1/2 137/1/2 139/1/2
f 139/1/2 137/1/2 140/1/2
f 138/1/2 139/1/2 141/1/2
f 141/1/2 139/1/2 142/1/2
f 143/5/2 144/5/2 146/5/2
f 146/5/2 144/5/2 147/5/2
f 147/5/2 144/5/2 148/5/2
f 148/5/2 144/5/2 149/5/2
f 145/5/2 146/5/2 151/5/2
f 146/5/2 147/5/2 151/5/2
f 151/5/2 147/5/2 152/5/2
f 152/5/2 147/5/2 153/5/2
f 149/5/2 150/5/2 154/5/2
f 148/5/2 149/5/2 154/5/2
f 154/5/2 150/5/2 155/5/2
f 155/5/2 150/5/2 156/5/2
f 152/4/2 153/4/2 157/4/2
f 157/4/2 153/4/2 158/4/2
f 155/4/2 156/4/2 159/4/2
f 155/4/2 159/4/2 163/4/2
f 159/1/2 160/1/2 164/1/2
f 163/4/2 159/4/2 164/4/2
f 161/4/2 162/4/2 165/4/2
f 165/4/2 162/4/2 166/4/2
f 164/1/2 160/1/2 169/1/2
f 163/1/2 164/1/2 169/1/2
f 169/1/2 160/1/2 170/1/2
f 167/2/2 168/2/2 171/2/2
f 171/2/2 168/2/2 172/2/2
f 173/1/2 174/1/2 175/1/2
f 175/1/2 174/1/2 176/1/2
f 163/1/2 169/1/2 177/1/2
f 177/1/2 169/1/2 178/1/2
f 176/1/2 177/1/2 179/1/2
f 179/1/2 177/1/2 180/1/2
f 181/1/2 182/1/2 183/1/2
f 183/1/2 182/1/2 184/1/2
f 185/2/2 186/2/2 189/2/2
f 187/1/2 188/1/2 191/1/2
f 185/2/2 189/2/2 192/2/2
f 187/1/2 191/1/2 193/1/2
f 191/1/2 192/1/2 193/1/2
f 193/1/2 192/1/2 194/1/2
f 192/2/2 189/2/2 195/2/2
f 194/1/2 192/1/2 195/1/2
f 189/1/2 190/1/2 196/1/2
f 195/2/2 189/2/2 196/2/2
f 194/1/2 195/1/2 197/1/2
f 195/4/2 196/4/2 197/4/2
f 196/1/2 190/1/2 198/1/2
f 197/4/2 196/4/2 198/4/2
f 194/1/2 197/1/2 199/1/2
f 198/1/2 190/1/2 200/1/2
f 194/1/2 199/1/2 201/1/2
f 199/3/2 200/3/2 201/3/2
f 200/1/2 190/1/2 202/1/2
f 201/3/2 200/3/2 202/3/2
f 194/1/2 201/1/2 203/1/2
f 201/1/2 202/1/2 203/1/2
f 202/1/2 190/1/2 204/1/2
f 203/1/2 202/1/2 204/1/2
f 210/1/3 206/1/3 205/1/3
f 211/1/3 206/1/3 210/1/3
f 213/1/3 208/1/3 207/1/3
f 215/1/3 213/1/3 207/1/3
f 215/1/3 214/1/3 213/1/3
f 216/1/3 214/1/3 215/1/3
f 217/1/3 214/1/3 216/1/3
f 218/1/3 214/1/3 217/1/3
f 219/4/3 212/4/3 211/4/3
f 219/4/3 211/4/3 210/4/3
f 220/4/3 212/4/3 219/4/3
f 221/4/3 219/4/3 210/4/3
f 226/1/3 224/1/3 223/1/3
f 227/5/3 210/5/3 209/5/3
f 228/4/3 222/4/3 221/4/3
f 228/5/3 210/5/3 227/5/3
f 228/4/3 221/4/3 210/4/3
f 229/4/3 222/4/3 228/4/3
f 230/4/3 222/4/3 229/4/3
f 231/1/3 226/1/3 225/1/3
f 231/1/3 224/1/3 226/1/3
f 232/1/3 224/1/3 231/1/3
f 233/1/3 231/1/3 225/1/3
f 234/1/3 231/1/3 233/1/3
f 235/1/3 229/1/3 228/1/3
f 236/1/3 229/1/3 235/1/3
f 239/1/3 238/1/3 237/1/3
f 240/1/3 238/1/3 239/1/3
f 243/1/3 239/1/3 237/1/3
f 244/1/3 239/1/3 243/1/3
f 245/1/3 239/1/3 244/1/3
f 246/1/3 238/1/3 240/1/3
f 247/1/3 238/1/3 246/1/3
f 249/2/3 245/2/3 244/2/3
f 251/2/3 249/2/3 244/2/3
f 251/2/3 250/2/3 249/2/3
f 252/2/3 250/2/3 251/2/3
f 253/2/3 250/2/3 252/2/3
f 255/1/3 248/1/3 247/1/3
f 256/5/3 242/5/3 241/5/3
f 257/5/3 242/5/3 256/5/3
f 259/2/3 251/2/3 244/2/3
f 260/11/3 252/11/3 251/11/3
f 260/2/3 251/2/3 259/2/3
f 261/2/3 254/2/3 253/2/3
f 261/11/3 252/11/3 260/11/3
f 261/2/3 253/2/3 252/2/3
f 262/1/3 255/1/3 254/1/3
f 262/2/3 254/2/3 261/2/3
f 263/1/3 248/1/3 255/1/3
f 263/1/3 255/1/3 262/1/3
f 264/1/3 248/1/3 263/1/3
f 267/2/3 261/2/3 260/2/3
f 267/2/3 260/2/3 259/2/3
f 267/2/3 263/2/3 262/2/3
f 267/2/3 259/2/3 258/2/3
f 267/2/3 262/2/3 261/2/3
f 268/2/3 263/2/3 267/2/3
f 269/2/3 263/2/3 268/2/3
f 270/2/3 263/2/3 269/2/3
f 271/2/3 263/2/3 270/2/3
f 272/2/3 263/2/3 271/2/3
f 274/2/3 269/2/3 268/2/3
f 274/11/3 270/11/3 269/11/3
f 275/2/3 271/2/3 270/2/3
f 275/11/3 270/11/3 274/11/3
f 276/2/3 271/2/3 275/2/3
f 277/1/3 273/1/3 272/1/3
f 277/2/3 271/2/3 276/2/3
f 277/1/3 272/1/3 271/1/3
f 278/1/3 273/1/3 277/1/3
f 279/2/3 276/2/3 275/2/3
f 279/2/3 275/2/3 274/2/3
f 280/2/3 276/2/3 279/2/3
f 281/5/3 266/5/3 265/5/3
f 282/5/3 266/5/3 281/5/3
f 284/2/3 274/2/3 268/2/3
f 284/2/3 279/2/3 274/2/3
f 285/2/3 279/2/3 284/2/3
f 287/1/3 273/1/3 278/1/3
f 288/1/3 273/1/3 287/1/3
f 289/1/3 285/1/3 284/1/3
f 289/1/3 284/1/3 283/1/3
f 290/1/3 287/1/3 286/1/3
f 291/1/3 289/1/3 283/1/3
f 291/1/3 290/1/3 289/1/3
f 292/1/3 287/1/3 290/1/3
f 292/1/3 290/1/3 291/1/3
f 295/2/3 294/2/3 293/2/3
f 296/2/3 294/2/3 295/2/3
f 297/2/3 294/2/3 296/2/3
f 300/6/3 299/6/3 298/6/3
f 301/6/3 299/6/3 300/6/3
f 306/1/3 303/1/3 302/1/3
f 307/1/3 303/1/3 306/1/3
f 308/6/3 305/6/3 304/6/3
f 309/6/3 305/6/3 308/6/3
f 313/2/3 311/2/3 310/2/3
f 313/2/3 312/2/3 311/2/3
f 314/2/3 312/2/3 313/2/3
f 317/1/3 316/1/3 315/1/3
f 318/1/3 316/1/3 317/1/3
f 321/1/3 320/1/3 319/1/3
f 322/1/3 320/1/3 321/1/3
f 323/1/4 324/1/4 325/1/4
f 325/1/4 324/1/4 326/1/4
f 327/1/4 328/1/4 329/1/4
f 329/1/4 328/1/4 330/1/4
f 331/1/4 332/1/4 333/1/4
f 333/1/4 332/1/4 334/1/4
f 335/1/4 336/1/4 337/1/4
f 337/1/4 336/1/4 338/1/4
f 339/2/4 340/2/4 341/2/4
f 341/2/4 340/2/4 342/2/4
f 343/6/4 344/6/4 345/6/4
f 345/6/4 344/6/4 346/6/4
f 347/6/4 348/6/4 349/6/4
f 349/6/4 348/6/4 350/6/4
f 351/2/4 352/2/4 353/2/4
f 353/2/4 352/2/4 354/2/4
f 355/1/4 356/1/4 359/1/4
f 359/1/4 356/1/4 360/1/4
f 360/1/4 356/1/4 361/1/4
f 361/1/4 362/1/4 363/1/4
f 363/1/4 362/1/4 364/1/4
f 357/5/4 358/5/4 365/5/4
f 365/5/4 358/5/4 366/5/4
f 367/5/4 368/5/4 371/5/4
f 371/5/4 368/5/4 372/5/4
f 369/1/4 370/1/4 375/1/4
f 375/1/4 370/1/4 376/1/4
f 373/1/4 374/1/4 377/1/4
f 374/1/4 375/1/4 377/1/4
f 377/1/4 375/1/4 378/1/4
f 382/1/4 383/1/4 384/1/4
f 384/1/4 383/1/4 385/1/4
f 379/5/4 380/5/4 387/5/4
f 380/4/4 381/4/4 387/4/4
f 387/4/4 381/4/4 388/4/4
f 379/5/4 387/5/4 389/5/4
f 385/1/4 386/1/4 392/1/4
f 392/1/4 386/1/4 393/1/4
f 379/5/4 389/5/4 394/5/4
f 389/4/4 390/4/4 395/4/4
f 394/5/4 389/5/4 395/5/4
f 395/4/4 390/4/4 396/4/4
f 391/1/4 392/1/4 397/1/4
f 397/1/4 392/1/4 398/1/4
f 399/1/4 400/1/4 401/1/4
f 399/1/4 401/1/4 404/1/4
f 401/1/4 402/1/4 404/1/4
f 403/1/4 404/1/4 405/1/4
f 404/1/4 402/1/4 406/1/4
f 405/1/4 404/1/4 406/1/4
f 406/1/4 402/1/4 407/1/4
f 407/1/4 402/1/4 408/1/4
f 406/1/4 407/1/4 409/1/4
f 409/1/4 407/1/4 410/1/4
f 415/6/5 412/6/5 411/6/5
f 416/6/5 412/6/5 415/6/5
f 417/6/5 414/6/5 413/6/5
f 418/6/5 414/6/5 417/6/5
f 423/5/5 420/5/5 419/5/5
f 424/5/5 420/5/5 423/5/5
f 425/5/5 422/5/5 421/5/5
f 426/5/5 422/5/5 425/5/5
f 427/5/5 423/5/5 419/5/5
f 430/5/5 422/5/5 426/5/5
f 431/5/5 428/5/5 427/5/5
f 431/5/5 427/5/5 419/5/5
f 432/5/5 428/5/5 431/5/5
f 433/5/5 430/5/5 429/5/5
f 434/5/5 422/5/5 430/5/5
f 434/5/5 430/5/5 433/5/5
f 437/5/5 436/5/5 435/5/5
f 438/5/5 436/5/5 437/5/5
f 439/5/5 436/5/5 438/5/5
f 440/5/5 436/5/5 439/5/5
f 445/2/5 442/2/5 441/2/5
f 446/2/5 442/2/5 445/2/5
f 447/2/5 444/2/5 443/2/5
f 448/2/5 444/2/5 447/2/5
f 450/5/5 439/5/5 438/5/5
f 451/5/5 439/5/5 450/5/5
f 453/5/5 450/5/5 449/5/5
f 453/5/5 452/5/5 451/5/5
f 453/5/5 451/5/5 450/5/5
f 454/5/5 452/5/5 453/5/5
f 459/1/5 456/1/5 455/1/5
f 460/1/5 456/1/5 459/1/5
f 461/1/5 458/1/5 457/1/5
f 462/1/5 458/1/5 461/1/5
f 467/1/5 464/1/5 463/1/5
f 468/1/5 464/1/5 467/1/5
f 469/1/5 466/1/5 465/1/5
f 470/1/5 466/1/5 469/1/5
f 473/1/5 472/1/5 471/1/5
f 474/1/5 472/1/5 473/1/5
f 479/1/5 476/1/5 475/1/5
f 480/1/5 476/1/5 479/1/5
f 481/1/5 478/1/5 477/1/5
f 482/1/5 478/1/5 481/1/5
f 487/1/5 484/1/5 483/1/5
f 488/1/5 484/1/5 487/1/5
f 489/1/5 486/1/5 485/1/5
f 490/1/5 486/1/5 489/1/5
f 495/3/5 492/3/5 491/3/5
f 496/3/5 492/3/5 495/3/5
f 497/3/5 494/3/5 493/3/5
f 498/3/5 494/3/5 497/3/5
f 503/1/5 500/1/5 499/1/5
f 504/1/5 500/1/5 503/1/5
f 505/1/5 500/1/5 504/1/5
f 506/1/5 502/1/5 501/1/5
f 507/1/5 502/1/5 506/1/5
f 508/1/5 502/1/5 507/1/5
f 513/1/5 510/1/5 509/1/5
f 514/1/5 510/1/5 513/1/5
f 515/1/5 512/1/5 511/1/5
f 516/1/5 512/1/5 515/1/5
f 517/1/6 518/1/6 523/1/6
f 523/1/6 518/1/6 524/1/6
f 519/4/6 520/4/6 525/4/6
f 525/4/6 520/4/6 526/4/6
f 521/1/6 522/1/6 527/1/6
f 527/1/6 522/1/6 528/1/6
f 529/4/6 530/4/6 533/4/6
f 533/4/6 530/4/6 534/4/6
f 531/4/6 532/4/6 535/4/6
f 535/4/6 532/4/6 536/4/6
f 537/4/6 538/4/6 541/4/6
f 541/4/6 538/4/6 542/4/6
f 539/4/6 540/4/6 543/4/6
f 543/4/6 540/4/6 544/4/6
f 545/1/6 546/1/6 549/1/6
f 549/1/6 546/1/6 550/1/6
f 547/1/6 548/1/6 551/1/6
f 551/1/6 548/1/6 552/1/6
f 553/1/6 554/1/6 557/1/6
f 557/1/6 554/1/6 558/1/6
f 555/1/6 556/1/6 559/1/6
f 559/1/6 556/1/6 560/1/6
f 561/1/6 562/1/6 566/1/6
f 566/1/6 562/1/6 567/1/6
f 563/1/6 564/1/6 570/1/6
f 570/1/6 564/1/6 571/1/6
f 568/2/6 569/2/6 573/2/6
f 573/2/6 569/2/6 574/2/6
f 565/1/6 566/1/6 575/1/6
f 575/1/6 566/1/6 576/1/6
f 571/1/6 572/1/6 579/1/6
f 579/1/6 572/1/6 580/1/6
f 576/1/6 577/1/6 581/1/6
f 581/1/6 577/1/6 582/1/6
f 578/1/6 579/1/6 583/1/6
f 583/1/6 579/1/6 584/1/6
f 582/1/6 583/1/6 585/1/6
f 585/1/6 583/1/6 586/1/6
f 587/1/6 588/1/6 591/1/6
f 589/1/6 590/1/6 592/1/6
f 587/1/6 591/1/6 593/1/6
f 591/1/6 592/1/6 593/1/6
f 593/1/6 592/1/6 594/1/6
f 592/1/6 590/1/6 595/1/6
f 594/1/6 592/1/6 595/1/6
f 595/1/6 590/1/6 596/1/6
f 594/1/6 595/1/6 597/1/6
f 597/1/6 595/1/6 598/1/6
