# MagicaVoxel @ Ephtracy

# material
mtllib walk2.mtl
usemtl palette

# normals
vn -1 0 0
vn 1 0 0
vn 0 0 1
vn 0 0 -1
vn 0 -1 0
vn 0 1 0

# texcoords
vt 0.0292969 0.5
vt 0.0332031 0.5
vt 0.0605469 0.5
vt 0.0917969 0.5
vt 0.123047 0.5
vt 0.154297 0.5
vt 0.779297 0.5
vt 0.810547 0.5
vt 0.869141 0.5
vt 0.962891 0.5
vt 0.994141 0.5

# verts
v -8 4 3
v -8 4 1
v -8 6 5
v -8 6 3
v -8 6 2
v -8 6 1
v -8 6 -0
v -8 6 -1
v -8 6 -3
v -8 8 3
v -8 8 2
v -8 10 5
v -8 10 4
v -8 10 2
v -8 10 1
v -8 10 -0
v -8 10 -1
v -8 12 1
v -8 12 -0
v -8 12 -1
v -8 12 -2
v -8 12 -3
v -8 14 2
v -8 14 -0
v -8 16 2
v -8 16 -0
v -8 20 4
v -8 20 -2
v -7 16 6
v -7 16 4
v -7 18 6
v -7 18 4
v -6 2 2
v -6 2 -4
v -6 4 5
v -6 4 3
v -6 4 2
v -6 4 1
v -6 4 -4
v -6 4 -5
v -6 6 5
v -6 6 3
v -6 6 2
v -6 6 1
v -6 6 -0
v -6 6 -1
v -6 6 -3
v -6 6 -5
v -6 8 3
v -6 8 2
v -6 8 -5
v -6 8 -6
v -6 10 5
v -6 10 4
v -6 10 2
v -6 10 1
v -6 10 -0
v -6 10 -1
v -6 10 -3
v -6 10 -5
v -6 12 5
v -6 12 4
v -6 12 2
v -6 12 1
v -6 12 -0
v -6 12 -2
v -6 12 -3
v -6 12 -4
v -6 12 -6
v -6 14 2
v -6 14 -0
v -6 18 6
v -6 18 4
v -6 20 6
v -6 20 4
v -6 20 -2
v -6 20 -4
v -6 22 4
v -6 22 -2
v -5 11 -2
v -5 11 -3
v -5 12 -2
v -5 12 -3
v -4 0 -1
v -4 0 -3
v -4 2 -1
v -4 2 -3
v -4 12 -4
v -4 12 -6
v -4 20 -2
v -4 20 -4
v -4 20 -6
v -4 22 -2
v -4 22 -4
v -2 6 -5
v -2 6 -6
v -2 8 -5
v -2 8 -6
v 2 0 3
v 2 0 1
v 2 2 4
v 2 2 3
v 2 2 1
v 2 2 -2
v 2 4 4
v 2 4 -2
v 2 10 5
v 2 10 4
v 2 11 -4
v 2 11 -5
v 2 12 5
v 2 12 4
v 2 12 -4
v 2 12 -5
v 2 20 4
v 2 20 2
v 2 22 4
v 2 22 2
v 4 18 6
v 4 18 4
v 4 19 4
v 4 20 6
v 4 20 4
v 5 16 6
v 5 16 4
v 5 18 6
v 5 18 4
v 6 12 3
v 6 12 2
v 6 12 -0
v 6 12 -1
v 6 14 -0
v 6 14 -1
v 6 18 3
v 6 18 2
v 6 19 3
v 6 19 2
v -6 11 -2
v -6 11 -3
v -6 12 -2
v -6 12 -3
v -5 16 6
v -5 16 4
v -5 18 6
v -5 18 4
v -4 11 -4
v -4 11 -5
v -4 12 -4
v -4 12 -5
v -4 18 6
v -4 18 4
v -4 19 4
v -4 20 6
v -4 20 4
v -2 0 -1
v -2 0 -3
v -2 2 2
v -2 2 -1
v -2 2 -3
v -2 2 -4
v -2 4 2
v -2 4 -4
v -2 10 5
v -2 10 4
v -2 12 5
v -2 12 4
v -2 20 4
v -2 20 2
v -2 22 4
v -2 22 2
v 2 6 -5
v 2 6 -6
v 2 8 -5
v 2 8 -6
v 2 12 3
v 2 12 2
v 2 14 3
v 2 16 3
v 2 19 3
v 2 19 2
v 4 0 3
v 4 0 1
v 4 2 3
v 4 2 1
v 4 12 -4
v 4 12 -6
v 4 20 -2
v 4 20 -4
v 4 20 -6
v 4 22 -2
v 4 22 -4
v 5 12 -0
v 5 12 -1
v 5 14 -0
v 5 14 -1
v 6 2 4
v 6 2 -2
v 6 4 5
v 6 4 4
v 6 4 -1
v 6 4 -2
v 6 4 -3
v 6 4 -5
v 6 6 5
v 6 6 3
v 6 6 -0
v 6 6 -1
v 6 6 -3
v 6 6 -5
v 6 8 3
v 6 8 2
v 6 8 -5
v 6 8 -6
v 6 10 5
v 6 10 4
v 6 10 1
v 6 10 -0
v 6 10 -3
v 6 10 -5
v 6 12 5
v 6 12 4
v 6 12 2
v 6 12 1
v 6 12 -0
v 6 12 -2
v 6 12 -3
v 6 12 -4
v 6 12 -6
v 6 14 2
v 6 14 -0
v 6 18 6
v 6 18 4
v 6 20 6
v 6 20 4
v 6 20 -2
v 6 20 -4
v 6 22 4
v 6 22 -2
v 7 16 6
v 7 16 4
v 7 18 6
v 7 18 4
v 8 4 -1
v 8 4 -3
v 8 6 5
v 8 6 3
v 8 6 -0
v 8 6 -1
v 8 6 -2
v 8 6 -3
v 8 8 3
v 8 8 2
v 8 10 5
v 8 10 4
v 8 10 1
v 8 10 -0
v 8 10 -1
v 8 10 -2
v 8 12 1
v 8 12 -0
v 8 12 -1
v 8 12 -2
v 8 12 -3
v 8 14 2
v 8 14 -0
v 8 16 2
v 8 16 -0
v 8 20 4
v 8 20 -2
v -7 16 6
v -7 18 6
v -6 18 6
v -6 20 6
v -5 16 6
v -5 18 6
v -4 18 6
v -4 20 6
v 4 18 6
v 4 20 6
v 5 16 6
v 5 18 6
v 6 18 6
v 6 20 6
v 7 16 6
v 7 18 6
v -8 6 5
v -8 10 5
v -6 4 5
v -6 6 5
v -6 10 5
v -6 12 5
v -2 10 5
v -2 12 5
v 2 10 5
v 2 12 5
v 6 4 5
v 6 6 5
v 6 10 5
v 6 12 5
v 8 6 5
v 8 10 5
v -8 10 4
v -8 20 4
v -7 16 4
v -7 18 4
v -6 10 4
v -6 12 4
v -6 16 4
v -6 18 4
v -6 20 4
v -6 22 4
v -5 16 4
v -5 18 4
v -4 14 4
v -4 16 4
v -4 18 4
v -4 19 4
v -4 20 4
v -2 10 4
v -2 12 4
v -2 14 4
v -2 16 4
v -2 19 4
v -2 20 4
v -2 22 4
v 2 2 4
v 2 4 4
v 2 10 4
v 2 12 4
v 2 14 4
v 2 16 4
v 2 19 4
v 2 20 4
v 2 22 4
v 4 14 4
v 4 16 4
v 4 18 4
v 4 19 4
v 4 20 4
v 5 16 4
v 5 18 4
v 6 2 4
v 6 4 4
v 6 10 4
v 6 12 4
v 6 16 4
v 6 18 4
v 6 20 4
v 6 22 4
v 7 16 4
v 7 18 4
v 8 10 4
v 8 20 4
v -8 4 3
v -8 6 3
v -6 4 3
v -6 6 3
v 2 0 3
v 2 2 3
v 4 0 3
v 4 2 3
v -8 6 2
v -8 8 2
v -6 2 2
v -6 4 2
v -6 6 2
v -6 8 2
v -2 2 2
v -2 4 2
v -2 20 2
v -2 22 2
v 2 12 2
v 2 19 2
v 2 20 2
v 2 22 2
v 4 16 2
v 4 18 2
v 5 12 2
v 5 16 2
v 5 18 2
v 5 19 2
v 6 12 2
v 6 18 2
v 6 19 2
v -8 10 1
v -8 12 1
v -6 10 1
v -6 12 1
v 6 10 1
v 6 12 1
v 8 10 1
v 8 12 1
v -8 12 -0
v -8 14 -0
v -6 12 -0
v -6 14 -0
v 6 6 -0
v 6 10 -0
v 6 12 -0
v 6 14 -0
v 8 6 -0
v 8 10 -0
v 8 12 -0
v 8 14 -0
v -8 6 -1
v -8 10 -1
v -6 6 -1
v -6 10 -1
v -4 0 -1
v -4 2 -1
v -2 0 -1
v -2 2 -1
v 5 12 -1
v 5 14 -1
v 6 4 -1
v 6 6 -1
v 6 12 -1
v 6 14 -1
v 8 4 -1
v 8 6 -1
v -6 11 -3
v -6 12 -3
v -5 11 -3
v -5 12 -3
v -4 11 -5
v -4 12 -5
v -3 11 -5
v 2 11 -5
v 2 12 -5
v -8 6 3
v -8 8 3
v -6 6 3
v -6 8 3
v 2 12 3
v 2 14 3
v 2 16 3
v 2 19 3
v 4 14 3
v 4 16 3
v 4 18 3
v 4 19 3
v 5 12 3
v 5 18 3
v 5 19 3
v 6 6 3
v 6 8 3
v 6 12 3
v 6 18 3
v 6 19 3
v 8 6 3
v 8 8 3
v -8 10 2
v -8 14 2
v -6 10 2
v -6 12 2
v -6 14 2
v 6 8 2
v 6 12 2
v 6 14 2
v 8 8 2
v 8 14 2
v -8 4 1
v -8 6 1
v -6 4 1
v -6 6 1
v 2 0 1
v 2 2 1
v 4 0 1
v 4 2 1
v -8 6 -0
v -8 10 -0
v -6 6 -0
v -6 10 -0
v 5 12 -0
v 5 14 -0
v 6 12 -0
v 6 14 -0
v -8 12 -2
v -8 20 -2
v -6 11 -2
v -6 12 -2
v -6 20 -2
v -6 22 -2
v -5 11 -2
v -5 12 -2
v -4 20 -2
v -4 22 -2
v 2 2 -2
v 2 4 -2
v 4 20 -2
v 4 22 -2
v 6 2 -2
v 6 4 -2
v 6 12 -2
v 6 20 -2
v 6 22 -2
v 8 12 -2
v 8 20 -2
v -8 6 -3
v -8 12 -3
v -6 6 -3
v -6 10 -3
v -6 12 -3
v -4 0 -3
v -4 2 -3
v -2 0 -3
v -2 2 -3
v 6 4 -3
v 6 6 -3
v 6 10 -3
v 6 12 -3
v 8 4 -3
v 8 6 -3
v 8 12 -3
v -6 2 -4
v -6 4 -4
v -6 12 -4
v -6 20 -4
v -4 11 -4
v -4 12 -4
v -4 20 -4
v -4 22 -4
v -3 11 -4
v -3 12 -4
v -2 2 -4
v -2 4 -4
v 2 11 -4
v 2 12 -4
v 4 12 -4
v 4 20 -4
v 4 22 -4
v 6 12 -4
v 6 20 -4
v -6 4 -5
v -6 6 -5
v -6 8 -5
v -2 6 -5
v -2 8 -5
v 2 6 -5
v 2 8 -5
v 6 4 -5
v 6 6 -5
v 6 8 -5
v -6 8 -6
v -6 12 -6
v -4 12 -6
v -4 20 -6
v -2 6 -6
v -2 8 -6
v 2 6 -6
v 2 8 -6
v 4 12 -6
v 4 20 -6
v 6 8 -6
v 6 12 -6
v 2 0 3
v 4 0 3
v 2 0 1
v 4 0 1
v -4 0 -1
v -2 0 -1
v -4 0 -3
v -2 0 -3
v 2 2 4
v 6 2 4
v 2 2 3
v 4 2 3
v -6 2 2
v -2 2 2
v 2 2 1
v 4 2 1
v -4 2 -1
v -2 2 -1
v 2 2 -2
v 6 2 -2
v -4 2 -3
v -2 2 -3
v -6 2 -4
v -2 2 -4
v -6 4 5
v 6 4 5
v 2 4 4
v 6 4 4
v -8 4 3
v -6 4 3
v -6 4 2
v -2 4 2
v -8 4 1
v -6 4 1
v 6 4 -1
v 8 4 -1
v 2 4 -2
v 6 4 -2
v 6 4 -3
v 8 4 -3
v -6 4 -4
v -2 4 -4
v -6 4 -5
v 6 4 -5
v -8 6 5
v -6 6 5
v 6 6 5
v 8 6 5
v -8 6 3
v -6 6 3
v 6 6 3
v 8 6 3
v -8 6 1
v -6 6 1
v -8 6 -0
v -6 6 -0
v 6 6 -0
v 8 6 -0
v -8 6 -1
v -6 6 -1
v 6 6 -1
v 8 6 -1
v -8 6 -3
v -6 6 -3
v -2 6 -5
v 2 6 -5
v -2 6 -6
v 2 6 -6
v -8 8 3
v -6 8 3
v 6 8 3
v 8 8 3
v -8 8 2
v -6 8 2
v 6 8 2
v 8 8 2
v -6 8 -5
v -2 8 -5
v 2 8 -5
v 6 8 -5
v -6 8 -6
v -2 8 -6
v 2 8 -6
v 6 8 -6
v 6 10 1
v 8 10 1
v -8 10 -0
v -6 10 -0
v 6 10 -0
v 8 10 -0
v -8 10 -1
v -6 10 -1
v -6 12 -2
v -5 12 -2
v -6 12 -3
v -5 12 -3
v -4 12 -4
v -3 12 -4
v 2 12 -4
v -4 12 -5
v 2 12 -5
v -8 14 2
v -6 14 2
v 6 14 2
v 8 14 2
v -8 14 -0
v -6 14 -0
v 5 14 -0
v 6 14 -0
v 8 14 -0
v 5 14 -1
v 6 14 -1
v -7 16 6
v -5 16 6
v 5 16 6
v 7 16 6
v -7 16 4
v -6 16 4
v -5 16 4
v 5 16 4
v 6 16 4
v 7 16 4
v -5 18 6
v -4 18 6
v 4 18 6
v 5 18 6
v -5 18 4
v -4 18 4
v 4 18 4
v 5 18 4
v 2 19 3
v 4 19 3
v 5 19 3
v 6 19 3
v 2 19 2
v 5 19 2
v 6 19 2
v -8 6 3
v -6 6 3
v -8 6 2
v -6 6 2
v -8 10 5
v -6 10 5
v -2 10 5
v 2 10 5
v 6 10 5
v 8 10 5
v -8 10 4
v -6 10 4
v -2 10 4
v 2 10 4
v 6 10 4
v 8 10 4
v -8 10 2
v -6 10 2
v -8 10 1
v -6 10 1
v -6 11 -2
v -5 11 -2
v -6 11 -3
v -5 11 -3
v -4 11 -4
v -3 11 -4
v 2 11 -4
v -4 11 -5
v -3 11 -5
v 2 11 -5
v -6 12 5
v -2 12 5
v 2 12 5
v 6 12 5
v -6 12 4
v -2 12 4
v 2 12 4
v 6 12 4
v 2 12 3
v 5 12 3
v 6 12 3
v 2 12 2
v 5 12 2
v 6 12 2
v -8 12 1
v -6 12 1
v 6 12 1
v 8 12 1
v -8 12 -0
v -6 12 -0
v 5 12 -0
v 6 12 -0
v 8 12 -0
v 5 12 -1
v 6 12 -1
v -8 12 -2
v -6 12 -2
v 6 12 -2
v 8 12 -2
v -8 12 -3
v -6 12 -3
v 6 12 -3
v 8 12 -3
v -6 12 -4
v -4 12 -4
v 4 12 -4
v 6 12 -4
v -6 12 -6
v -4 12 -6
v 4 12 -6
v 6 12 -6
v -7 18 6
v -6 18 6
v 6 18 6
v 7 18 6
v -7 18 4
v -6 18 4
v 6 18 4
v 7 18 4
v -6 20 6
v -4 20 6
v 4 20 6
v 6 20 6
v -8 20 4
v -6 20 4
v -4 20 4
v -2 20 4
v 2 20 4
v 4 20 4
v 6 20 4
v 8 20 4
v -2 20 2
v 2 20 2
v -8 20 -2
v -6 20 -2
v -4 20 -2
v 4 20 -2
v 6 20 -2
v 8 20 -2
v -6 20 -4
v -4 20 -4
v 4 20 -4
v 6 20 -4
v -4 20 -6
v 4 20 -6
v -6 22 4
v -2 22 4
v 2 22 4
v 6 22 4
v -2 22 2
v 2 22 2
v -6 22 -2
v -4 22 -2
v 4 22 -2
v 6 22 -2
v -4 22 -4
v 4 22 -4

# faces
f 4/2/1 2/2/1 1/2/1
f 5/2/1 2/2/1 4/2/1
f 6/2/1 2/2/1 5/2/1
f 10/1/1 4/1/1 3/1/1
f 11/2/1 7/2/1 6/2/1
f 11/2/1 6/2/1 5/2/1
f 12/1/1 10/1/1 3/1/1
f 12/1/1 11/1/1 10/1/1
f 13/1/1 11/1/1 12/1/1
f 14/2/1 7/2/1 11/2/1
f 14/1/1 11/1/1 13/1/1
f 15/2/1 7/2/1 14/2/1
f 16/2/1 7/2/1 15/2/1
f 17/1/1 9/1/1 8/1/1
f 18/4/1 16/4/1 15/4/1
f 18/4/1 17/4/1 16/4/1
f 19/4/1 17/4/1 18/4/1
f 20/1/1 9/1/1 17/1/1
f 20/4/1 17/4/1 19/4/1
f 21/1/1 9/1/1 20/1/1
f 22/1/1 9/1/1 21/1/1
f 23/1/1 14/1/1 13/1/1
f 24/1/1 21/1/1 20/1/1
f 24/1/1 20/1/1 19/1/1
f 25/1/1 23/1/1 13/1/1
f 25/3/1 24/3/1 23/3/1
f 26/1/1 21/1/1 24/1/1
f 26/3/1 24/3/1 25/3/1
f 27/1/1 25/1/1 13/1/1
f 27/1/1 26/1/1 25/1/1
f 28/1/1 21/1/1 26/1/1
f 28/1/1 26/1/1 27/1/1
f 31/1/1 30/1/1 29/1/1
f 32/1/1 30/1/1 31/1/1
f 37/5/1 34/5/1 33/5/1
f 38/5/1 34/5/1 37/5/1
f 39/5/1 34/5/1 38/5/1
f 41/5/1 36/5/1 35/5/1
f 42/5/1 36/5/1 41/5/1
f 44/5/1 40/5/1 39/5/1
f 44/5/1 39/5/1 38/5/1
f 45/5/1 40/5/1 44/5/1
f 46/5/1 40/5/1 45/5/1
f 47/5/1 40/5/1 46/5/1
f 48/5/1 40/5/1 47/5/1
f 49/4/1 43/4/1 42/4/1
f 50/4/1 43/4/1 49/4/1
f 51/4/1 48/4/1 47/4/1
f 57/4/1 46/4/1 45/4/1
f 58/4/1 46/4/1 57/4/1
f 59/4/1 51/4/1 47/4/1
f 60/1/1 52/1/1 51/1/1
f 60/4/1 51/4/1 59/4/1
f 61/4/1 54/4/1 53/4/1
f 62/4/1 54/4/1 61/4/1
f 63/4/1 56/4/1 55/4/1
f 64/4/1 56/4/1 63/4/1
f 67/1/1 60/1/1 59/1/1
f 68/1/1 60/1/1 67/1/1
f 69/1/1 52/1/1 60/1/1
f 69/1/1 60/1/1 68/1/1
f 70/2/1 65/2/1 64/2/1
f 70/2/1 64/2/1 63/2/1
f 71/2/1 65/2/1 70/2/1
f 74/1/1 73/1/1 72/1/1
f 75/1/1 73/1/1 74/1/1
f 76/1/1 68/1/1 67/1/1
f 76/1/1 67/1/1 66/1/1
f 77/1/1 68/1/1 76/1/1
f 78/1/1 76/1/1 75/1/1
f 79/1/1 76/1/1 78/1/1
f 82/8/1 81/8/1 80/8/1
f 83/8/1 81/8/1 82/8/1
f 86/6/1 85/6/1 84/6/1
f 87/6/1 85/6/1 86/6/1
f 91/1/1 89/1/1 88/1/1
f 92/1/1 89/1/1 91/1/1
f 93/1/1 91/1/1 90/1/1
f 94/1/1 91/1/1 93/1/1
f 97/1/1 96/1/1 95/1/1
f 98/1/1 96/1/1 97/1/1
f 102/6/1 100/6/1 99/6/1
f 103/6/1 100/6/1 102/6/1
f 105/5/1 102/5/1 101/5/1
f 105/5/1 104/5/1 103/5/1
f 105/5/1 103/5/1 102/5/1
f 106/5/1 104/5/1 105/5/1
f 111/4/1 108/4/1 107/4/1
f 112/4/1 108/4/1 111/4/1
f 113/8/1 110/8/1 109/8/1
f 114/8/1 110/8/1 113/8/1
f 117/1/1 116/1/1 115/1/1
f 118/1/1 116/1/1 117/1/1
f 121/1/1 120/1/1 119/1/1
f 122/1/1 121/1/1 119/1/1
f 123/1/1 121/1/1 122/1/1
f 126/1/1 125/1/1 124/1/1
f 127/1/1 125/1/1 126/1/1
f 132/1/1 131/1/1 130/1/1
f 133/1/1 131/1/1 132/1/1
f 134/1/1 129/1/1 128/1/1
f 135/1/1 129/1/1 134/1/1
f 136/1/1 135/1/1 134/1/1
f 137/1/1 135/1/1 136/1/1
f 138/1/2 139/1/2 140/1/2
f 140/1/2 139/1/2 141/1/2
f 142/1/2 143/1/2 144/1/2
f 144/1/2 143/1/2 145/1/2
f 146/1/2 147/1/2 148/1/2
f 148/1/2 147/1/2 149/1/2
f 150/1/2 151/1/2 152/1/2
f 150/1/2 152/1/2 153/1/2
f 153/1/2 152/1/2 154/1/2
f 155/6/2 156/6/2 158/6/2
f 158/6/2 156/6/2 159/6/2
f 157/5/2 158/5/2 161/5/2
f 159/5/2 160/5/2 161/5/2
f 158/5/2 159/5/2 161/5/2
f 161/5/2 160/5/2 162/5/2
f 163/4/2 164/4/2 165/4/2
f 165/4/2 164/4/2 166/4/2
f 167/1/2 168/1/2 169/1/2
f 169/1/2 168/1/2 170/1/2
f 171/1/2 172/1/2 173/1/2
f 173/1/2 172/1/2 174/1/2
f 175/10/2 176/10/2 177/10/2
f 177/10/2 176/10/2 178/10/2
f 178/10/2 176/10/2 179/10/2
f 179/10/2 176/10/2 180/10/2
f 181/6/2 182/6/2 183/6/2
f 183/6/2 182/6/2 184/6/2
f 185/1/2 186/1/2 188/1/2
f 188/1/2 186/1/2 189/1/2
f 187/1/2 188/1/2 190/1/2
f 190/1/2 188/1/2 191/1/2
f 192/10/2 193/10/2 194/10/2
f 194/10/2 193/10/2 195/10/2
f 196/5/2 197/5/2 199/5/2
f 199/5/2 197/5/2 200/5/2
f 200/5/2 197/5/2 201/5/2
f 198/5/2 199/5/2 204/5/2
f 199/5/2 200/5/2 204/5/2
f 204/5/2 200/5/2 205/5/2
f 205/5/2 200/5/2 206/5/2
f 206/5/2 200/5/2 207/5/2
f 202/5/2 203/5/2 208/5/2
f 208/5/2 203/5/2 209/5/2
f 205/4/2 206/4/2 210/4/2
f 210/4/2 206/4/2 211/4/2
f 208/4/2 209/4/2 212/4/2
f 211/4/2 206/4/2 216/4/2
f 216/4/2 206/4/2 217/4/2
f 208/4/2 212/4/2 218/4/2
f 212/1/2 213/1/2 219/1/2
f 218/4/2 212/4/2 219/4/2
f 214/4/2 215/4/2 220/4/2
f 220/4/2 215/4/2 221/4/2
f 211/4/2 216/4/2 222/4/2
f 222/4/2 216/4/2 223/4/2
f 218/1/2 219/1/2 226/1/2
f 226/1/2 219/1/2 227/1/2
f 219/1/2 213/1/2 228/1/2
f 227/1/2 219/1/2 228/1/2
f 223/2/2 224/2/2 229/2/2
f 222/2/2 223/2/2 229/2/2
f 229/2/2 224/2/2 230/2/2
f 231/1/2 232/1/2 233/1/2
f 233/1/2 232/1/2 234/1/2
f 226/1/2 227/1/2 235/1/2
f 225/1/2 226/1/2 235/1/2
f 235/1/2 227/1/2 236/1/2
f 234/1/2 235/1/2 237/1/2
f 237/1/2 235/1/2 238/1/2
f 239/1/2 240/1/2 241/1/2
f 241/1/2 240/1/2 242/1/2
f 243/2/2 244/2/2 248/2/2
f 248/2/2 244/2/2 249/2/2
f 249/2/2 244/2/2 250/2/2
f 245/1/2 246/1/2 251/1/2
f 245/1/2 251/1/2 253/1/2
f 251/1/2 252/1/2 253/1/2
f 253/1/2 252/1/2 254/1/2
f 247/2/2 248/2/2 256/2/2
f 248/2/2 249/2/2 256/2/2
f 256/2/2 249/2/2 257/2/2
f 249/1/2 250/1/2 258/1/2
f 257/2/2 249/2/2 258/2/2
f 256/4/2 257/4/2 259/4/2
f 255/4/2 256/4/2 259/4/2
f 259/4/2 257/4/2 260/4/2
f 257/1/2 258/1/2 261/1/2
f 260/4/2 257/4/2 261/4/2
f 258/1/2 250/1/2 262/1/2
f 261/1/2 258/1/2 262/1/2
f 262/1/2 250/1/2 263/1/2
f 254/1/2 252/1/2 264/1/2
f 260/1/2 261/1/2 265/1/2
f 261/1/2 262/1/2 265/1/2
f 254/1/2 264/1/2 266/1/2
f 264/3/2 265/3/2 266/3/2
f 265/1/2 262/1/2 267/1/2
f 266/3/2 265/3/2 267/3/2
f 254/1/2 266/1/2 268/1/2
f 266/1/2 267/1/2 268/1/2
f 267/1/2 262/1/2 269/1/2
f 268/1/2 267/1/2 269/1/2
f 272/1/3 271/1/3 270/1/3
f 274/1/3 272/1/3 270/1/3
f 274/1/3 273/1/3 272/1/3
f 275/1/3 273/1/3 274/1/3
f 276/1/3 273/1/3 275/1/3
f 277/1/3 273/1/3 276/1/3
f 281/1/3 279/1/3 278/1/3
f 282/1/3 279/1/3 281/1/3
f 282/1/3 281/1/3 280/1/3
f 283/1/3 279/1/3 282/1/3
f 284/1/3 282/1/3 280/1/3
f 285/1/3 282/1/3 284/1/3
f 289/1/3 287/1/3 286/1/3
f 290/1/3 287/1/3 289/1/3
f 292/4/3 290/4/3 289/4/3
f 292/4/3 291/4/3 290/4/3
f 293/4/3 291/4/3 292/4/3
f 294/4/3 292/4/3 289/4/3
f 296/5/3 289/5/3 288/5/3
f 297/4/3 295/4/3 294/4/3
f 297/5/3 289/5/3 296/5/3
f 297/4/3 294/4/3 289/4/3
f 298/4/3 295/4/3 297/4/3
f 299/4/3 295/4/3 298/4/3
f 300/1/3 298/1/3 297/1/3
f 301/1/3 298/1/3 300/1/3
f 304/1/3 303/1/3 302/1/3
f 305/1/3 303/1/3 304/1/3
f 306/1/3 304/1/3 302/1/3
f 307/1/3 304/1/3 306/1/3
f 308/1/3 304/1/3 307/1/3
f 309/1/3 303/1/3 305/1/3
f 310/1/3 303/1/3 309/1/3
f 312/2/3 308/2/3 307/2/3
f 314/2/3 312/2/3 307/2/3
f 314/2/3 313/2/3 312/2/3
f 315/2/3 313/2/3 314/2/3
f 316/2/3 313/2/3 315/2/3
f 318/1/3 311/1/3 310/1/3
f 320/2/3 314/2/3 307/2/3
f 321/11/3 315/11/3 314/11/3
f 321/2/3 314/2/3 320/2/3
f 322/2/3 317/2/3 316/2/3
f 322/11/3 315/11/3 321/11/3
f 322/2/3 316/2/3 315/2/3
f 323/1/3 318/1/3 317/1/3
f 323/2/3 317/2/3 322/2/3
f 324/1/3 311/1/3 318/1/3
f 324/1/3 318/1/3 323/1/3
f 325/1/3 311/1/3 324/1/3
f 328/2/3 321/2/3 320/2/3
f 328/2/3 322/2/3 321/2/3
f 328/2/3 320/2/3 319/2/3
f 328/2/3 324/2/3 323/2/3
f 328/2/3 323/2/3 322/2/3
f 329/2/3 324/2/3 328/2/3
f 330/2/3 324/2/3 329/2/3
f 331/2/3 324/2/3 330/2/3
f 332/2/3 324/2/3 331/2/3
f 333/2/3 324/2/3 332/2/3
f 335/2/3 330/2/3 329/2/3
f 335/11/3 331/11/3 330/11/3
f 336/2/3 332/2/3 331/2/3
f 336/11/3 331/11/3 335/11/3
f 337/2/3 332/2/3 336/2/3
f 338/1/3 334/1/3 333/1/3
f 338/2/3 332/2/3 337/2/3
f 338/1/3 333/1/3 332/1/3
f 339/1/3 334/1/3 338/1/3
f 340/2/3 337/2/3 336/2/3
f 340/2/3 336/2/3 335/2/3
f 341/2/3 337/2/3 340/2/3
f 342/5/3 327/5/3 326/5/3
f 343/5/3 327/5/3 342/5/3
f 345/2/3 335/2/3 329/2/3
f 345/2/3 340/2/3 335/2/3
f 346/2/3 340/2/3 345/2/3
f 348/1/3 334/1/3 339/1/3
f 349/1/3 334/1/3 348/1/3
f 350/1/3 346/1/3 345/1/3
f 350/1/3 345/1/3 344/1/3
f 351/1/3 348/1/3 347/1/3
f 352/1/3 350/1/3 344/1/3
f 352/1/3 351/1/3 350/1/3
f 353/1/3 348/1/3 351/1/3
f 353/1/3 351/1/3 352/1/3
f 356/2/3 355/2/3 354/2/3
f 357/2/3 355/2/3 356/2/3
f 360/6/3 359/6/3 358/6/3
f 361/6/3 359/6/3 360/6/3
f 366/2/3 363/2/3 362/2/3
f 367/2/3 363/2/3 366/2/3
f 368/5/3 365/5/3 364/5/3
f 369/5/3 365/5/3 368/5/3
f 374/1/3 371/1/3 370/1/3
f 375/1/3 371/1/3 374/1/3
f 376/10/3 373/10/3 372/10/3
f 377/10/3 373/10/3 376/10/3
f 378/10/3 376/10/3 372/10/3
f 379/2/3 377/2/3 376/2/3
f 379/10/3 376/10/3 378/10/3
f 380/10/3 373/10/3 377/10/3
f 380/2/3 377/2/3 379/2/3
f 381/10/3 373/10/3 380/10/3
f 382/2/3 379/2/3 378/2/3
f 382/2/3 380/2/3 379/2/3
f 383/1/3 381/1/3 380/1/3
f 383/2/3 380/2/3 382/2/3
f 384/1/3 381/1/3 383/1/3
f 387/4/3 386/4/3 385/4/3
f 388/4/3 386/4/3 387/4/3
f 391/4/3 390/4/3 389/4/3
f 392/4/3 390/4/3 391/4/3
f 395/1/3 394/1/3 393/1/3
f 396/1/3 394/1/3 395/1/3
f 401/2/3 398/2/3 397/2/3
f 402/2/3 398/2/3 401/2/3
f 403/1/3 400/1/3 399/1/3
f 404/1/3 400/1/3 403/1/3
f 407/1/3 406/1/3 405/1/3
f 408/1/3 406/1/3 407/1/3
f 411/6/3 410/6/3 409/6/3
f 412/6/3 410/6/3 411/6/3
f 417/2/3 414/2/3 413/2/3
f 418/2/3 414/2/3 417/2/3
f 419/2/3 416/2/3 415/2/3
f 420/2/3 416/2/3 419/2/3
f 423/1/3 422/1/3 421/1/3
f 424/1/3 422/1/3 423/1/3
f 427/1/3 426/1/3 425/1/3
f 428/1/3 426/1/3 427/1/3
f 429/1/3 426/1/3 428/1/3
f 430/1/4 431/1/4 432/1/4
f 432/1/4 431/1/4 433/1/4
f 434/2/4 435/2/4 438/2/4
f 435/11/4 436/11/4 438/11/4
f 436/2/4 437/2/4 439/2/4
f 438/11/4 436/11/4 439/11/4
f 439/2/4 437/2/4 440/2/4
f 440/2/4 437/2/4 441/2/4
f 434/2/4 438/2/4 442/2/4
f 438/2/4 439/2/4 442/2/4
f 439/2/4 440/2/4 442/2/4
f 440/9/4 441/9/4 443/9/4
f 442/2/4 440/2/4 443/2/4
f 443/9/4 441/9/4 444/9/4
f 442/2/4 443/2/4 447/2/4
f 443/1/4 444/1/4 448/1/4
f 447/2/4 443/2/4 448/2/4
f 448/1/4 444/1/4 449/1/4
f 445/1/4 446/1/4 450/1/4
f 450/1/4 446/1/4 451/1/4
f 452/1/4 453/1/4 454/1/4
f 454/1/4 453/1/4 455/1/4
f 455/1/4 453/1/4 456/1/4
f 457/1/4 458/1/4 460/1/4
f 458/1/4 459/1/4 460/1/4
f 460/1/4 459/1/4 461/1/4
f 462/2/4 463/2/4 464/2/4
f 464/2/4 463/2/4 465/2/4
f 466/6/4 467/6/4 468/6/4
f 468/6/4 467/6/4 469/6/4
f 470/2/4 471/2/4 472/2/4
f 472/2/4 471/2/4 473/2/4
f 474/2/4 475/2/4 476/2/4
f 476/2/4 475/2/4 477/2/4
f 478/1/4 479/1/4 481/1/4
f 481/1/4 479/1/4 482/1/4
f 480/8/4 481/8/4 484/8/4
f 484/8/4 481/8/4 485/8/4
f 482/1/4 483/1/4 486/1/4
f 486/1/4 483/1/4 487/1/4
f 488/5/4 489/5/4 492/5/4
f 492/5/4 489/5/4 493/5/4
f 490/1/4 491/1/4 495/1/4
f 495/1/4 491/1/4 496/1/4
f 494/1/4 495/1/4 497/1/4
f 497/1/4 495/1/4 498/1/4
f 499/1/4 500/1/4 501/1/4
f 501/1/4 500/1/4 502/1/4
f 502/1/4 500/1/4 503/1/4
f 504/6/4 505/6/4 506/6/4
f 506/6/4 505/6/4 507/6/4
f 508/2/4 509/2/4 512/2/4
f 510/1/4 511/1/4 513/1/4
f 512/2/4 509/2/4 513/2/4
f 509/1/4 510/1/4 513/1/4
f 513/1/4 511/1/4 514/1/4
f 517/1/4 518/1/4 520/1/4
f 520/1/4 518/1/4 521/1/4
f 519/1/4 520/1/4 523/1/4
f 523/1/4 520/1/4 524/1/4
f 515/5/4 516/5/4 525/5/4
f 525/5/4 516/5/4 526/5/4
f 523/8/4 524/8/4 527/8/4
f 527/8/4 524/8/4 528/8/4
f 521/1/4 522/1/4 530/1/4
f 530/1/4 522/1/4 531/1/4
f 529/1/4 530/1/4 532/1/4
f 532/1/4 530/1/4 533/1/4
f 534/5/4 535/5/4 537/5/4
f 535/4/4 536/4/4 537/4/4
f 537/4/4 536/4/4 538/4/4
f 534/5/4 537/5/4 539/5/4
f 534/5/4 539/5/4 541/5/4
f 539/4/4 540/4/4 542/4/4
f 541/5/4 539/5/4 542/5/4
f 542/4/4 540/4/4 543/4/4
f 544/1/4 545/1/4 546/1/4
f 544/1/4 546/1/4 549/1/4
f 546/1/4 547/1/4 549/1/4
f 548/1/4 549/1/4 550/1/4
f 549/1/4 547/1/4 551/1/4
f 550/1/4 549/1/4 551/1/4
f 551/1/4 547/1/4 552/1/4
f 552/1/4 547/1/4 553/1/4
f 551/1/4 552/1/4 554/1/4
f 554/1/4 552/1/4 555/1/4
f 558/6/5 557/6/5 556/6/5
f 559/6/5 557/6/5 558/6/5
f 562/6/5 561/6/5 560/6/5
f 563/6/5 561/6/5 562/6/5
f 566/5/5 565/5/5 564/5/5
f 567/5/5 565/5/5 566/5/5
f 571/5/5 565/5/5 567/5/5
f 572/5/5 569/5/5 568/5/5
f 573/5/5 569/5/5 572/5/5
f 574/5/5 571/5/5 570/5/5
f 575/5/5 565/5/5 571/5/5
f 575/5/5 571/5/5 574/5/5
f 576/5/5 572/5/5 568/5/5
f 578/5/5 576/5/5 568/5/5
f 578/5/5 577/5/5 576/5/5
f 579/5/5 577/5/5 578/5/5
f 582/5/5 581/5/5 580/5/5
f 583/5/5 581/5/5 582/5/5
f 585/5/5 582/5/5 580/5/5
f 586/5/5 582/5/5 585/5/5
f 586/2/5 585/2/5 584/2/5
f 587/5/5 582/5/5 586/5/5
f 588/2/5 586/2/5 584/2/5
f 589/2/5 586/2/5 588/2/5
f 592/5/5 582/5/5 587/5/5
f 593/2/5 591/2/5 590/2/5
f 594/2/5 591/2/5 593/2/5
f 594/5/5 593/5/5 592/5/5
f 595/2/5 591/2/5 594/2/5
f 597/5/5 592/5/5 587/5/5
f 597/5/5 594/5/5 592/5/5
f 598/5/5 597/5/5 596/5/5
f 599/5/5 594/5/5 597/5/5
f 599/5/5 597/5/5 598/5/5
f 604/1/5 601/1/5 600/1/5
f 605/1/5 601/1/5 604/1/5
f 606/1/5 603/1/5 602/1/5
f 607/1/5 603/1/5 606/1/5
f 610/2/5 609/2/5 608/2/5
f 611/2/5 609/2/5 610/2/5
f 616/2/5 613/2/5 612/2/5
f 617/2/5 613/2/5 616/2/5
f 618/1/5 615/1/5 614/1/5
f 619/1/5 615/1/5 618/1/5
f 622/1/5 621/1/5 620/1/5
f 623/1/5 621/1/5 622/1/5
f 628/1/5 625/1/5 624/1/5
f 629/1/5 625/1/5 628/1/5
f 630/1/5 627/1/5 626/1/5
f 631/1/5 627/1/5 630/1/5
f 636/1/5 633/1/5 632/1/5
f 637/1/5 633/1/5 636/1/5
f 638/1/5 635/1/5 634/1/5
f 639/1/5 635/1/5 638/1/5
f 644/4/5 641/4/5 640/4/5
f 645/4/5 641/4/5 644/4/5
f 646/4/5 643/4/5 642/4/5
f 647/4/5 643/4/5 646/4/5
f 650/1/5 649/1/5 648/1/5
f 651/1/5 649/1/5 650/1/5
f 655/1/5 653/1/5 652/1/5
f 655/1/5 654/1/5 653/1/5
f 656/1/5 654/1/5 655/1/5
f 661/3/5 658/3/5 657/3/5
f 662/3/5 658/3/5 661/3/5
f 664/3/5 660/3/5 659/3/5
f 665/3/5 660/3/5 664/3/5
f 666/10/5 664/10/5 663/10/5
f 667/10/5 664/10/5 666/10/5
f 672/1/5 669/1/5 668/1/5
f 673/1/5 669/1/5 672/1/5
f 674/1/5 669/1/5 673/1/5
f 675/1/5 671/1/5 670/1/5
f 676/1/5 671/1/5 675/1/5
f 677/1/5 671/1/5 676/1/5
f 682/1/5 679/1/5 678/1/5
f 683/1/5 679/1/5 682/1/5
f 684/1/5 681/1/5 680/1/5
f 685/1/5 681/1/5 684/1/5
f 690/9/5 687/9/5 686/9/5
f 690/9/5 688/9/5 687/9/5
f 691/1/5 689/1/5 688/1/5
f 691/9/5 688/9/5 690/9/5
f 692/1/5 689/1/5 691/1/5
f 693/2/6 694/2/6 695/2/6
f 695/2/6 694/2/6 696/2/6
f 697/1/6 698/1/6 703/1/6
f 703/1/6 698/1/6 704/1/6
f 699/4/6 700/4/6 705/4/6
f 705/4/6 700/4/6 706/4/6
f 701/1/6 702/1/6 707/1/6
f 707/1/6 702/1/6 708/1/6
f 709/2/6 710/2/6 711/2/6
f 711/2/6 710/2/6 712/2/6
f 713/8/6 714/8/6 715/8/6
f 715/8/6 714/8/6 716/8/6
f 717/1/6 718/1/6 720/1/6
f 718/8/6 719/8/6 721/8/6
f 720/1/6 718/1/6 721/1/6
f 721/8/6 719/8/6 722/8/6
f 723/4/6 724/4/6 727/4/6
f 727/4/6 724/4/6 728/4/6
f 725/4/6 726/4/6 729/4/6
f 729/4/6 726/4/6 730/4/6
f 731/10/6 732/10/6 734/10/6
f 732/8/6 733/8/6 735/8/6
f 734/10/6 732/10/6 735/10/6
f 735/8/6 733/8/6 736/8/6
f 737/4/6 738/4/6 741/4/6
f 741/4/6 738/4/6 742/4/6
f 739/4/6 740/4/6 744/4/6
f 744/4/6 740/4/6 745/4/6
f 743/10/6 744/10/6 746/10/6
f 746/10/6 744/10/6 747/10/6
f 748/1/6 749/1/6 752/1/6
f 752/1/6 749/1/6 753/1/6
f 750/1/6 751/1/6 754/1/6
f 754/1/6 751/1/6 755/1/6
f 756/1/6 757/1/6 760/1/6
f 760/1/6 757/1/6 761/1/6
f 758/1/6 759/1/6 762/1/6
f 762/1/6 759/1/6 763/1/6
f 764/1/6 765/1/6 768/1/6
f 768/1/6 765/1/6 769/1/6
f 766/1/6 767/1/6 770/1/6
f 770/1/6 767/1/6 771/1/6
f 772/1/6 773/1/6 777/1/6
f 777/1/6 773/1/6 778/1/6
f 774/1/6 775/1/6 781/1/6
f 781/1/6 775/1/6 782/1/6
f 779/2/6 780/2/6 784/2/6
f 784/2/6 780/2/6 785/2/6
f 776/1/6 777/1/6 786/1/6
f 786/1/6 777/1/6 787/1/6
f 782/1/6 783/1/6 790/1/6
f 790/1/6 783/1/6 791/1/6
f 787/1/6 788/1/6 792/1/6
f 792/1/6 788/1/6 793/1/6
f 789/1/6 790/1/6 794/1/6
f 794/1/6 790/1/6 795/1/6
f 793/1/6 794/1/6 796/1/6
f 796/1/6 794/1/6 797/1/6
f 798/1/6 799/1/6 802/1/6
f 800/1/6 801/1/6 803/1/6
f 798/1/6 802/1/6 804/1/6
f 802/1/6 803/1/6 804/1/6
f 804/1/6 803/1/6 805/1/6
f 803/1/6 801/1/6 806/1/6
f 805/1/6 803/1/6 806/1/6
f 806/1/6 801/1/6 807/1/6
f 805/1/6 806/1/6 808/1/6
f 808/1/6 806/1/6 809/1/6
