# MagicaVoxel @ Ephtracy

# material
mtllib walk1.mtl
usemtl palette

# normals
vn -1 0 0
vn 1 0 0
vn 0 0 1
vn 0 0 -1
vn 0 -1 0
vn 0 1 0

# texcoords
vt 0.0292969 0.5
vt 0.0332031 0.5
vt 0.0605469 0.5
vt 0.0917969 0.5
vt 0.779297 0.5
vt 0.810547 0.5
vt 0.841797 0.5
vt 0.869141 0.5
vt 0.873047 0.5
vt 0.962891 0.5
vt 0.994141 0.5

# verts
v -8 4 -2
v -8 4 -4
v -8 6 -1
v -8 6 -2
v -8 6 -3
v -8 6 -4
v -8 10 -0
v -8 10 -1
v -8 10 -2
v -8 10 -3
v -8 12 -0
v -8 12 -2
v -8 14 1
v -8 14 -1
v -8 16 1
v -8 16 -1
v -6 2 3
v -6 2 -3
v -6 4 4
v -6 4 3
v -6 4 -2
v -6 4 -3
v -6 4 -4
v -6 4 -6
v -6 6 4
v -6 6 2
v -6 6 -1
v -6 6 -2
v -6 6 -3
v -6 6 -4
v -6 6 -6
v -6 8 4
v -6 8 2
v -6 10 -0
v -6 10 -1
v -6 10 -2
v -6 10 -3
v -6 12 4
v -6 12 3
v -6 12 -0
v -6 12 -2
v -6 12 -3
v -6 12 -6
v -6 14 1
v -6 14 -1
v -6 14 -3
v -6 16 3
v -6 16 1
v -6 16 -1
v -6 18 5
v -6 18 3
v -6 18 -3
v -6 18 -5
v -6 20 5
v -6 20 3
v -6 22 3
v -6 22 -5
v -4 0 2
v -4 0 -0
v -4 2 2
v -4 2 -0
v -4 12 -3
v -4 12 -5
v -4 14 -3
v -4 14 -5
v -4 18 -3
v -4 18 -5
v -2 8 6
v -2 8 4
v -2 10 6
v -2 10 4
v -2 20 5
v -2 20 3
v -2 22 5
v -2 22 3
v 2 0 -2
v 2 0 -4
v 2 2 1
v 2 2 -2
v 2 2 -4
v 2 2 -5
v 2 4 1
v 2 4 -4
v 2 4 -5
v -2 0 2
v -2 0 -0
v -2 2 3
v -2 2 2
v -2 2 -0
v -2 2 -3
v -2 4 3
v -2 4 2
v -2 4 -3
v 0 8 6
v 0 8 4
v 0 10 6
v 0 10 4
v 2 20 5
v 2 20 3
v 2 22 5
v 2 22 3
v 4 0 -2
v 4 0 -4
v 4 2 -2
v 4 2 -4
v 4 12 -3
v 4 12 -5
v 4 14 -3
v 4 14 -5
v 4 18 -3
v 4 18 -5
v 6 2 1
v 6 2 -5
v 6 4 4
v 6 4 2
v 6 4 1
v 6 4 -0
v 6 4 -5
v 6 4 -6
v 6 6 4
v 6 6 2
v 6 6 1
v 6 6 -0
v 6 6 -1
v 6 6 -6
v 6 10 1
v 6 10 -0
v 6 10 -1
v 6 10 -2
v 6 12 4
v 6 12 3
v 6 12 -0
v 6 12 -2
v 6 12 -3
v 6 12 -6
v 6 14 1
v 6 14 -1
v 6 14 -3
v 6 16 3
v 6 16 1
v 6 16 -1
v 6 18 5
v 6 18 3
v 6 18 -3
v 6 18 -5
v 6 20 5
v 6 20 3
v 6 22 3
v 6 22 -5
v 8 4 2
v 8 4 -0
v 8 6 2
v 8 6 1
v 8 6 -0
v 8 6 -1
v 8 10 1
v 8 10 -0
v 8 10 -1
v 8 10 -2
v 8 12 -0
v 8 12 -2
v 8 14 1
v 8 14 -1
v 8 16 1
v 8 16 -1
v -2 8 6
v -2 10 6
v 0 8 6
v 0 10 6
v -6 18 5
v -6 20 5
v -2 20 5
v -2 22 5
v 2 20 5
v 2 22 5
v 6 18 5
v 6 20 5
v -6 4 4
v -6 6 4
v -6 8 4
v -6 12 4
v -4 8 4
v -4 10 4
v -2 6 4
v -2 8 4
v -2 10 4
v 0 6 4
v 0 8 4
v 0 10 4
v 0 12 4
v 2 6 4
v 2 12 4
v 6 4 4
v 6 6 4
v 6 12 4
v -6 2 3
v -6 4 3
v -6 12 3
v -6 16 3
v -6 18 3
v -6 20 3
v -6 22 3
v -5 16 3
v -5 18 3
v -4 14 3
v -4 16 3
v -2 2 3
v -2 4 3
v -2 14 3
v -2 16 3
v -2 20 3
v -2 22 3
v 0 12 3
v 2 12 3
v 2 14 3
v 2 16 3
v 2 20 3
v 2 22 3
v 4 14 3
v 4 16 3
v 5 16 3
v 5 18 3
v 6 12 3
v 6 16 3
v 6 18 3
v 6 20 3
v 6 22 3
v -4 0 2
v -4 2 2
v -2 0 2
v -2 2 2
v 6 4 2
v 6 6 2
v 8 4 2
v 8 6 2
v -8 14 1
v -8 16 1
v -6 14 1
v -6 16 1
v 2 2 1
v 2 4 1
v 5 4 1
v 6 2 1
v 6 4 1
v 6 6 1
v 6 10 1
v 6 14 1
v 6 16 1
v 8 6 1
v 8 10 1
v 8 14 1
v 8 16 1
v -8 10 -0
v -8 12 -0
v -6 10 -0
v -6 12 -0
v 6 10 -0
v 6 12 -0
v 8 10 -0
v 8 12 -0
v -8 6 -1
v -8 10 -1
v -6 6 -1
v -6 10 -1
v -8 4 -2
v -8 6 -2
v -6 4 -2
v -6 6 -2
v 2 0 -2
v 2 2 -2
v 4 0 -2
v 4 2 -2
v -4 0 -0
v -4 2 -0
v -2 0 -0
v -2 2 -0
v 6 4 -0
v 6 6 -0
v 8 4 -0
v 8 6 -0
v -8 14 -1
v -8 16 -1
v -6 14 -1
v -6 16 -1
v 6 6 -1
v 6 10 -1
v 6 14 -1
v 6 16 -1
v 8 6 -1
v 8 10 -1
v 8 14 -1
v 8 16 -1
v -8 10 -2
v -8 12 -2
v -6 10 -2
v -6 12 -2
v 6 10 -2
v 6 12 -2
v 8 10 -2
v 8 12 -2
v -8 6 -3
v -8 10 -3
v -6 2 -3
v -6 4 -3
v -6 6 -3
v -6 10 -3
v -6 12 -3
v -6 14 -3
v -6 18 -3
v -5 4 -3
v -4 12 -3
v -4 14 -3
v -4 18 -3
v -2 2 -3
v -2 4 -3
v 4 12 -3
v 4 14 -3
v 4 18 -3
v 6 12 -3
v 6 14 -3
v 6 18 -3
v -8 4 -4
v -8 6 -4
v -6 4 -4
v -6 6 -4
v 2 0 -4
v 2 2 -4
v 4 0 -4
v 4 2 -4
v -6 18 -5
v -6 22 -5
v -4 12 -5
v -4 14 -5
v -4 18 -5
v 2 2 -5
v 2 4 -5
v 4 12 -5
v 4 14 -5
v 4 18 -5
v 6 2 -5
v 6 4 -5
v 6 18 -5
v 6 22 -5
v -6 4 -6
v -6 6 -6
v -6 12 -6
v 6 4 -6
v 6 6 -6
v 6 12 -6
v -4 0 2
v -2 0 2
v -4 0 -0
v -2 0 -0
v 2 0 -2
v 4 0 -2
v 2 0 -4
v 4 0 -4
v -6 2 3
v -2 2 3
v -4 2 2
v -2 2 2
v 2 2 1
v 6 2 1
v -4 2 -0
v -2 2 -0
v 2 2 -2
v 4 2 -2
v -6 2 -3
v -2 2 -3
v 2 2 -4
v 4 2 -4
v 2 2 -5
v 6 2 -5
v -6 4 4
v 6 4 4
v -6 4 3
v -2 4 3
v -2 4 2
v 5 4 2
v 6 4 2
v 8 4 2
v 2 4 1
v 5 4 1
v 6 4 1
v 6 4 -0
v 8 4 -0
v -8 4 -2
v -6 4 -2
v -6 4 -3
v -5 4 -3
v -2 4 -3
v -8 4 -4
v -6 4 -4
v -5 4 -4
v 2 4 -4
v 2 4 -5
v 6 4 -5
v -6 4 -6
v 6 4 -6
v 6 6 -0
v 8 6 -0
v -8 6 -1
v -6 6 -1
v 6 6 -1
v 8 6 -1
v -8 6 -2
v -6 6 -2
v -2 8 6
v 0 8 6
v -2 8 4
v 0 8 4
v -8 10 -0
v -6 10 -0
v -8 10 -1
v -6 10 -1
v 6 10 -1
v 8 10 -1
v 6 10 -2
v 8 10 -2
v -8 14 1
v -6 14 1
v 6 14 1
v 8 14 1
v -8 14 -1
v -6 14 -1
v 6 14 -1
v 8 14 -1
v -6 18 5
v 6 18 5
v -6 18 3
v -5 18 3
v 5 18 3
v 6 18 3
v -6 18 -3
v -4 18 -3
v 4 18 -3
v 6 18 -3
v -6 18 -5
v -4 18 -5
v 4 18 -5
v 6 18 -5
v 6 6 2
v 8 6 2
v 6 6 1
v 8 6 1
v -8 6 -3
v -6 6 -3
v -8 6 -4
v -6 6 -4
v -2 10 6
v 0 10 6
v -2 10 4
v 0 10 4
v 6 10 1
v 8 10 1
v 6 10 -0
v 8 10 -0
v -8 10 -2
v -6 10 -2
v -8 10 -3
v -6 10 -3
v -6 12 4
v 0 12 4
v 2 12 4
v 6 12 4
v -6 12 3
v 0 12 3
v 2 12 3
v 6 12 3
v -8 12 -0
v -6 12 -0
v 6 12 -0
v 8 12 -0
v -8 12 -2
v -6 12 -2
v 6 12 -2
v 8 12 -2
v -6 12 -3
v -4 12 -3
v 4 12 -3
v 6 12 -3
v -4 12 -5
v 4 12 -5
v -6 12 -6
v 6 12 -6
v -8 16 1
v -6 16 1
v 6 16 1
v 8 16 1
v -8 16 -1
v -6 16 -1
v 6 16 -1
v 8 16 -1
v -6 20 5
v -2 20 5
v 2 20 5
v 6 20 5
v -6 20 3
v -2 20 3
v 2 20 3
v 6 20 3
v -2 22 5
v 2 22 5
v -6 22 3
v -2 22 3
v 2 22 3
v 6 22 3
v -6 22 -5
v 6 22 -5

# faces
f 4/2/1 2/2/1 1/2/1
f 5/2/1 2/2/1 4/2/1
f 6/2/1 2/2/1 5/2/1
f 8/6/1 4/6/1 3/6/1
f 8/6/1 5/6/1 4/6/1
f 9/6/1 5/6/1 8/6/1
f 10/6/1 5/6/1 9/6/1
f 11/7/1 8/7/1 7/7/1
f 11/7/1 9/7/1 8/7/1
f 12/7/1 9/7/1 11/7/1
f 15/3/1 14/3/1 13/3/1
f 16/3/1 14/3/1 15/3/1
f 20/5/1 18/5/1 17/5/1
f 21/5/1 18/5/1 20/5/1
f 22/5/1 18/5/1 21/5/1
f 25/9/1 20/9/1 19/9/1
f 25/9/1 21/9/1 20/9/1
f 26/9/1 21/9/1 25/9/1
f 27/9/1 21/9/1 26/9/1
f 28/9/1 21/9/1 27/9/1
f 30/9/1 24/9/1 23/9/1
f 31/9/1 24/9/1 30/9/1
f 32/7/1 26/7/1 25/7/1
f 33/6/1 27/6/1 26/6/1
f 33/7/1 26/7/1 32/7/1
f 34/6/1 33/6/1 32/6/1
f 34/6/1 27/6/1 33/6/1
f 35/6/1 27/6/1 34/6/1
f 37/6/1 31/6/1 30/6/1
f 37/6/1 30/6/1 29/6/1
f 38/6/1 34/6/1 32/6/1
f 39/6/1 34/6/1 38/6/1
f 40/6/1 34/6/1 39/6/1
f 41/6/1 37/6/1 36/6/1
f 42/6/1 31/6/1 37/6/1
f 42/6/1 37/6/1 41/6/1
f 43/6/1 31/6/1 42/6/1
f 44/2/1 40/2/1 39/2/1
f 44/2/1 41/2/1 40/2/1
f 44/2/1 42/2/1 41/2/1
f 45/2/1 42/2/1 44/2/1
f 46/2/1 42/2/1 45/2/1
f 47/2/1 44/2/1 39/2/1
f 48/2/1 44/2/1 47/2/1
f 49/4/1 46/4/1 45/4/1
f 51/4/1 48/4/1 47/4/1
f 51/4/1 49/4/1 48/4/1
f 52/4/1 46/4/1 49/4/1
f 52/4/1 49/4/1 51/4/1
f 54/5/1 52/5/1 51/5/1
f 54/5/1 53/5/1 52/5/1
f 54/5/1 51/5/1 50/5/1
f 55/5/1 53/5/1 54/5/1
f 56/5/1 53/5/1 55/5/1
f 57/5/1 53/5/1 56/5/1
f 60/9/1 59/9/1 58/9/1
f 61/9/1 59/9/1 60/9/1
f 64/2/1 63/2/1 62/2/1
f 65/2/1 63/2/1 64/2/1
f 66/4/1 65/4/1 64/4/1
f 67/4/1 65/4/1 66/4/1
f 70/7/1 69/7/1 68/7/1
f 71/7/1 69/7/1 70/7/1
f 74/1/1 73/1/1 72/1/1
f 75/1/1 73/1/1 74/1/1
f 79/9/1 77/9/1 76/9/1
f 80/9/1 77/9/1 79/9/1
f 82/5/1 79/5/1 78/5/1
f 82/5/1 81/5/1 80/5/1
f 82/5/1 80/5/1 79/5/1
f 83/5/1 81/5/1 82/5/1
f 84/5/1 81/5/1 83/5/1
f 85/9/2 86/9/2 88/9/2
f 88/9/2 86/9/2 89/9/2
f 87/5/2 88/5/2 91/5/2
f 89/5/2 90/5/2 91/5/2
f 88/5/2 89/5/2 91/5/2
f 91/5/2 90/5/2 92/5/2
f 92/5/2 90/5/2 93/5/2
f 94/7/2 95/7/2 96/7/2
f 96/7/2 95/7/2 97/7/2
f 98/1/2 99/1/2 100/1/2
f 100/1/2 99/1/2 101/1/2
f 102/9/2 103/9/2 104/9/2
f 104/9/2 103/9/2 105/9/2
f 106/2/2 107/2/2 108/2/2
f 108/2/2 107/2/2 109/2/2
f 108/4/2 109/4/2 110/4/2
f 110/4/2 109/4/2 111/4/2
f 112/5/2 113/5/2 116/5/2
f 116/5/2 113/5/2 117/5/2
f 117/5/2 113/5/2 118/5/2
f 114/9/2 115/9/2 120/9/2
f 120/9/2 115/9/2 121/9/2
f 118/9/2 119/9/2 123/9/2
f 117/9/2 118/9/2 123/9/2
f 123/9/2 119/9/2 124/9/2
f 124/9/2 119/9/2 125/9/2
f 121/6/2 122/6/2 126/6/2
f 120/6/2 121/6/2 126/6/2
f 124/6/2 125/6/2 128/6/2
f 128/6/2 125/6/2 129/6/2
f 126/6/2 127/6/2 130/6/2
f 120/6/2 126/6/2 130/6/2
f 130/6/2 127/6/2 131/6/2
f 131/6/2 127/6/2 132/6/2
f 129/6/2 125/6/2 133/6/2
f 133/6/2 125/6/2 134/6/2
f 134/6/2 125/6/2 135/6/2
f 131/2/2 132/2/2 136/2/2
f 133/2/2 134/2/2 136/2/2
f 132/2/2 133/2/2 136/2/2
f 136/2/2 134/2/2 137/2/2
f 137/2/2 134/2/2 138/2/2
f 131/2/2 136/2/2 139/2/2
f 139/2/2 136/2/2 140/2/2
f 137/4/2 138/4/2 141/4/2
f 139/4/2 140/4/2 143/4/2
f 140/4/2 141/4/2 143/4/2
f 141/4/2 138/4/2 144/4/2
f 143/4/2 141/4/2 144/4/2
f 143/5/2 144/5/2 146/5/2
f 144/5/2 145/5/2 146/5/2
f 142/5/2 143/5/2 146/5/2
f 146/5/2 145/5/2 147/5/2
f 147/5/2 145/5/2 148/5/2
f 148/5/2 145/5/2 149/5/2
f 150/2/2 151/2/2 152/2/2
f 152/2/2 151/2/2 153/2/2
f 153/2/2 151/2/2 154/2/2
f 154/6/2 155/6/2 156/6/2
f 153/6/2 154/6/2 156/6/2
f 156/6/2 155/6/2 157/6/2
f 157/6/2 155/6/2 158/6/2
f 158/7/2 159/7/2 160/7/2
f 157/7/2 158/7/2 160/7/2
f 160/7/2 159/7/2 161/7/2
f 162/3/2 163/3/2 164/3/2
f 164/3/2 163/3/2 165/3/2
f 168/7/3 167/7/3 166/7/3
f 169/7/3 167/7/3 168/7/3
f 172/5/3 171/5/3 170/5/3
f 174/5/3 172/5/3 170/5/3
f 174/1/3 173/1/3 172/1/3
f 175/1/3 173/1/3 174/1/3
f 176/5/3 174/5/3 170/5/3
f 177/5/3 174/5/3 176/5/3
f 182/7/3 180/7/3 179/7/3
f 182/6/3 181/6/3 180/6/3
f 183/6/3 181/6/3 182/6/3
f 184/9/3 179/9/3 178/9/3
f 184/7/3 182/7/3 179/7/3
f 185/1/3 183/1/3 182/1/3
f 185/7/3 182/7/3 184/7/3
f 186/6/3 181/6/3 183/6/3
f 186/1/3 183/1/3 185/1/3
f 187/6/3 185/6/3 184/6/3
f 187/9/3 184/9/3 178/9/3
f 188/6/3 185/6/3 187/6/3
f 189/6/3 181/6/3 186/6/3
f 190/6/3 181/6/3 189/6/3
f 191/5/3 188/5/3 187/5/3
f 191/9/3 187/9/3 178/9/3
f 191/5/3 190/5/3 189/5/3
f 191/5/3 189/5/3 188/5/3
f 192/5/3 190/5/3 191/5/3
f 193/9/3 191/9/3 178/9/3
f 194/6/3 192/6/3 191/6/3
f 194/9/3 191/9/3 193/9/3
f 195/6/3 192/6/3 194/6/3
f 203/2/3 199/2/3 198/2/3
f 203/4/3 200/4/3 199/4/3
f 204/4/3 200/4/3 203/4/3
f 205/2/3 203/2/3 198/2/3
f 205/2/3 204/2/3 203/2/3
f 206/2/3 204/2/3 205/2/3
f 207/5/3 197/5/3 196/5/3
f 208/5/3 197/5/3 207/5/3
f 209/2/3 205/2/3 198/2/3
f 209/11/3 206/11/3 205/11/3
f 210/2/3 204/2/3 206/2/3
f 210/11/3 206/11/3 209/11/3
f 211/5/3 202/5/3 201/5/3
f 212/5/3 202/5/3 211/5/3
f 213/2/3 209/2/3 198/2/3
f 213/2/3 210/2/3 209/2/3
f 214/2/3 210/2/3 213/2/3
f 215/2/3 210/2/3 214/2/3
f 216/2/3 204/2/3 210/2/3
f 216/2/3 210/2/3 215/2/3
f 219/2/3 215/2/3 214/2/3
f 219/11/3 216/11/3 215/11/3
f 220/2/3 204/2/3 216/2/3
f 220/11/3 216/11/3 219/11/3
f 221/2/3 220/2/3 219/2/3
f 221/2/3 204/2/3 220/2/3
f 222/2/3 204/2/3 221/2/3
f 223/2/3 219/2/3 214/2/3
f 223/2/3 221/2/3 219/2/3
f 224/4/3 222/4/3 221/4/3
f 224/2/3 221/2/3 223/2/3
f 225/4/3 222/4/3 224/4/3
f 226/5/3 218/5/3 217/5/3
f 227/5/3 218/5/3 226/5/3
f 230/9/3 229/9/3 228/9/3
f 231/9/3 229/9/3 230/9/3
f 234/2/3 233/2/3 232/2/3
f 235/2/3 233/2/3 234/2/3
f 238/3/3 237/3/3 236/3/3
f 239/3/3 237/3/3 238/3/3
f 242/5/3 241/5/3 240/5/3
f 243/5/3 242/5/3 240/5/3
f 244/5/3 242/5/3 243/5/3
f 249/6/3 246/6/3 245/6/3
f 250/6/3 246/6/3 249/6/3
f 251/3/3 248/3/3 247/3/3
f 252/3/3 248/3/3 251/3/3
f 255/7/3 254/7/3 253/7/3
f 256/7/3 254/7/3 255/7/3
f 259/7/3 258/7/3 257/7/3
f 260/7/3 258/7/3 259/7/3
f 263/6/3 262/6/3 261/6/3
f 264/6/3 262/6/3 263/6/3
f 267/2/3 266/2/3 265/2/3
f 268/2/3 266/2/3 267/2/3
f 271/9/3 270/9/3 269/9/3
f 272/9/3 270/9/3 271/9/3
f 273/9/4 274/9/4 275/9/4
f 275/9/4 274/9/4 276/9/4
f 277/2/4 278/2/4 279/2/4
f 279/2/4 278/2/4 280/2/4
f 281/3/4 282/3/4 283/3/4
f 283/3/4 282/3/4 284/3/4
f 285/6/4 286/6/4 289/6/4
f 289/6/4 286/6/4 290/6/4
f 287/3/4 288/3/4 291/3/4
f 291/3/4 288/3/4 292/3/4
f 293/7/4 294/7/4 295/7/4
f 295/7/4 294/7/4 296/7/4
f 297/7/4 298/7/4 299/7/4
f 299/7/4 298/7/4 300/7/4
f 301/6/4 302/6/4 305/6/4
f 305/6/4 302/6/4 306/6/4
f 303/5/4 304/5/4 310/5/4
f 307/2/4 308/2/4 311/2/4
f 308/4/4 309/4/4 312/4/4
f 311/2/4 308/2/4 312/2/4
f 312/4/4 309/4/4 313/4/4
f 303/5/4 310/5/4 314/5/4
f 314/5/4 310/5/4 315/5/4
f 316/2/4 317/2/4 319/2/4
f 317/4/4 318/4/4 320/4/4
f 319/2/4 317/2/4 320/2/4
f 320/4/4 318/4/4 321/4/4
f 322/2/4 323/2/4 324/2/4
f 324/2/4 323/2/4 325/2/4
f 326/9/4 327/9/4 328/9/4
f 328/9/4 327/9/4 329/9/4
f 330/5/4 331/5/4 334/5/4
f 332/2/4 333/2/4 337/2/4
f 333/4/4 334/4/4 338/4/4
f 337/2/4 333/2/4 338/2/4
f 334/5/4 331/5/4 339/5/4
f 338/4/4 334/4/4 339/4/4
f 335/5/4 336/5/4 340/5/4
f 340/5/4 336/5/4 341/5/4
f 339/5/4 331/5/4 342/5/4
f 342/5/4 331/5/4 343/5/4
f 344/9/4 345/9/4 347/9/4
f 345/6/4 346/6/4 348/6/4
f 347/9/4 345/9/4 348/9/4
f 348/6/4 346/6/4 349/6/4
f 352/9/5 351/9/5 350/9/5
f 353/9/5 351/9/5 352/9/5
f 356/9/5 355/9/5 354/9/5
f 357/9/5 355/9/5 356/9/5
f 360/5/5 359/5/5 358/5/5
f 361/5/5 359/5/5 360/5/5
f 364/5/5 360/5/5 358/5/5
f 366/5/5 363/5/5 362/5/5
f 367/5/5 363/5/5 366/5/5
f 368/5/5 365/5/5 364/5/5
f 368/5/5 364/5/5 358/5/5
f 369/5/5 365/5/5 368/5/5
f 371/5/5 363/5/5 367/5/5
f 372/5/5 371/5/5 370/5/5
f 373/5/5 363/5/5 371/5/5
f 373/5/5 371/5/5 372/5/5
f 376/9/5 375/9/5 374/9/5
f 377/9/5 375/9/5 376/9/5
f 378/9/5 375/9/5 377/9/5
f 379/9/5 375/9/5 378/9/5
f 380/9/5 375/9/5 379/9/5
f 382/5/5 379/5/5 378/5/5
f 383/9/5 380/9/5 379/9/5
f 383/5/5 379/5/5 382/5/5
f 384/2/5 381/2/5 380/2/5
f 384/9/5 380/9/5 383/9/5
f 385/2/5 381/2/5 384/2/5
f 386/2/5 381/2/5 385/2/5
f 389/2/5 388/2/5 387/2/5
f 391/5/5 382/5/5 378/5/5
f 392/2/5 389/2/5 387/2/5
f 393/9/5 390/9/5 389/9/5
f 393/2/5 389/2/5 392/2/5
f 394/5/5 391/5/5 390/5/5
f 394/9/5 390/9/5 393/9/5
f 395/5/5 382/5/5 391/5/5
f 395/5/5 391/5/5 394/5/5
f 396/9/5 394/9/5 393/9/5
f 396/9/5 395/9/5 394/9/5
f 398/9/5 396/9/5 393/9/5
f 398/9/5 397/9/5 396/9/5
f 399/9/5 397/9/5 398/9/5
f 404/6/5 401/6/5 400/6/5
f 405/6/5 401/6/5 404/6/5
f 406/6/5 403/6/5 402/6/5
f 407/6/5 403/6/5 406/6/5
f 410/7/5 409/7/5 408/7/5
f 411/7/5 409/7/5 410/7/5
f 414/7/5 413/7/5 412/7/5
f 415/7/5 413/7/5 414/7/5
f 418/7/5 417/7/5 416/7/5
f 419/7/5 417/7/5 418/7/5
f 424/3/5 421/3/5 420/3/5
f 425/3/5 421/3/5 424/3/5
f 426/3/5 423/3/5 422/3/5
f 427/3/5 423/3/5 426/3/5
f 430/5/5 429/5/5 428/5/5
f 431/5/5 429/5/5 430/5/5
f 432/5/5 429/5/5 431/5/5
f 433/5/5 429/5/5 432/5/5
f 438/5/5 435/5/5 434/5/5
f 439/5/5 435/5/5 438/5/5
f 440/5/5 437/5/5 436/5/5
f 441/5/5 437/5/5 440/5/5
f 442/2/6 443/2/6 444/2/6
f 444/2/6 443/2/6 445/2/6
f 446/2/6 447/2/6 448/2/6
f 448/2/6 447/2/6 449/2/6
f 450/7/6 451/7/6 452/7/6
f 452/7/6 451/7/6 453/7/6
f 454/6/6 455/6/6 456/6/6
f 456/6/6 455/6/6 457/6/6
f 458/6/6 459/6/6 460/6/6
f 460/6/6 459/6/6 461/6/6
f 462/6/6 463/6/6 466/6/6
f 463/5/6 464/5/6 467/5/6
f 466/6/6 463/6/6 467/6/6
f 464/6/6 465/6/6 468/6/6
f 467/5/6 464/5/6 468/5/6
f 468/6/6 465/6/6 469/6/6
f 470/7/6 471/7/6 474/7/6
f 474/7/6 471/7/6 475/7/6
f 472/7/6 473/7/6 476/7/6
f 476/7/6 473/7/6 477/7/6
f 478/6/6 479/6/6 482/6/6
f 480/6/6 481/6/6 483/6/6
f 478/6/6 482/6/6 484/6/6
f 482/6/6 483/6/6 484/6/6
f 483/6/6 481/6/6 485/6/6
f 484/6/6 483/6/6 485/6/6
f 486/3/6 487/3/6 490/3/6
f 490/3/6 487/3/6 491/3/6
f 488/3/6 489/3/6 492/3/6
f 492/3/6 489/3/6 493/3/6
f 494/5/6 495/5/6 498/5/6
f 498/5/6 495/5/6 499/5/6
f 496/5/6 497/5/6 500/5/6
f 500/5/6 497/5/6 501/5/6
f 502/1/6 503/1/6 505/1/6
f 505/1/6 503/1/6 506/1/6
f 504/5/6 505/5/6 508/5/6
f 506/5/6 507/5/6 508/5/6
f 505/5/6 506/5/6 508/5/6
f 508/5/6 507/5/6 509/5/6
