# MagicaVoxel @ Ephtracy

# material
mtllib idle.mtl
usemtl palette

# normals
vn -1 0 0
vn 1 0 0
vn 0 0 1
vn 0 0 -1
vn 0 -1 0
vn 0 1 0

# texcoords
vt 0.0332031 0.5
vt 0.0605469 0.5
vt 0.279297 0.5
vt 0.869141 0.5
vt 0.873047 0.5
vt 0.962891 0.5
vt 0.966797 0.5
vt 0.994141 0.5

# verts
v -8 4 2
v -8 4 -0
v -8 6 2
v -8 6 -0
v -8 12 2
v -8 12 -0
v -8 14 2
v -8 14 -0
v -8 16 4
v -8 16 2
v -8 16 -0
v -8 16 -2
v -8 18 6
v -8 18 4
v -8 18 -2
v -8 18 -4
v -8 20 6
v -8 20 -4
v -6 2 4
v -6 2 -2
v -6 4 6
v -6 4 4
v -6 4 2
v -6 4 -0
v -6 4 -2
v -6 4 -4
v -6 6 6
v -6 6 2
v -6 6 -0
v -6 6 -4
v -6 12 6
v -6 12 4
v -6 12 2
v -6 12 -0
v -6 12 -2
v -6 12 -4
v -6 14 2
v -6 14 -0
v -6 14 -2
v -6 14 -4
v -6 16 4
v -6 16 2
v -6 16 -0
v -6 16 -2
v -6 18 -2
v -6 18 -4
v -6 18 -6
v -6 20 4
v -6 20 -2
v -6 20 -4
v -6 20 -6
v -6 26 4
v -6 26 -2
v -4 0 2
v -4 0 -0
v -4 2 2
v -4 2 -0
v -4 12 -2
v -4 12 -4
v -4 14 -2
v -4 14 -4
v -4 14 -6
v -4 18 -4
v -4 18 -6
v -4 20 -2
v -4 20 -4
v -4 26 -2
v -4 26 -4
v 2 0 2
v 2 0 -0
v 2 2 4
v 2 2 2
v 2 2 -0
v 2 2 -2
v 2 4 4
v 2 4 -2
v -2 0 2
v -2 0 -0
v -2 2 4
v -2 2 2
v -2 2 -0
v -2 2 -2
v -2 4 4
v -2 4 -2
v 4 0 2
v 4 0 -0
v 4 2 2
v 4 2 -0
v 4 12 -2
v 4 12 -4
v 4 14 -2
v 4 14 -4
v 4 14 -6
v 4 18 -4
v 4 18 -6
v 4 20 -2
v 4 20 -4
v 4 26 -2
v 4 26 -4
v 6 2 4
v 6 2 -2
v 6 4 6
v 6 4 4
v 6 4 2
v 6 4 -0
v 6 4 -2
v 6 4 -4
v 6 6 6
v 6 6 2
v 6 6 -0
v 6 6 -4
v 6 12 6
v 6 12 4
v 6 12 2
v 6 12 -0
v 6 12 -2
v 6 12 -4
v 6 14 2
v 6 14 -0
v 6 14 -2
v 6 14 -4
v 6 16 4
v 6 16 2
v 6 16 -0
v 6 16 -2
v 6 18 -2
v 6 18 -4
v 6 18 -6
v 6 20 4
v 6 20 -2
v 6 20 -4
v 6 20 -6
v 6 26 4
v 6 26 -2
v 8 4 2
v 8 4 -0
v 8 6 2
v 8 6 -0
v 8 12 2
v 8 12 -0
v 8 14 2
v 8 14 -0
v 8 16 4
v 8 16 2
v 8 16 -0
v 8 16 -2
v 8 18 6
v 8 18 4
v 8 18 -2
v 8 18 -4
v 8 20 6
v 8 20 -4
v -8 18 6
v -8 20 6
v -6 4 6
v -6 6 6
v -6 12 6
v -4 10 6
v -4 12 6
v -2 8 6
v -2 10 6
v 2 8 6
v 2 10 6
v 4 10 6
v 4 12 6
v 6 4 6
v 6 6 6
v 6 12 6
v 8 18 6
v 8 20 6
v -8 16 4
v -8 18 4
v -6 2 4
v -6 4 4
v -6 12 4
v -6 16 4
v -6 18 4
v -6 20 4
v -6 26 4
v -4 12 4
v -4 14 4
v -4 16 4
v -2 2 4
v -2 4 4
v -2 14 4
v -2 16 4
v 2 2 4
v 2 4 4
v 2 14 4
v 2 16 4
v 4 12 4
v 4 14 4
v 4 16 4
v 6 2 4
v 6 4 4
v 6 12 4
v 6 16 4
v 6 18 4
v 6 20 4
v 6 26 4
v 8 16 4
v 8 18 4
v -8 4 2
v -8 6 2
v -8 12 2
v -8 14 2
v -8 16 2
v -6 4 2
v -6 6 2
v -6 12 2
v -6 14 2
v -6 16 2
v -4 0 2
v -4 2 2
v -2 0 2
v -2 2 2
v 2 0 2
v 2 2 2
v 4 0 2
v 4 2 2
v 6 4 2
v 6 6 2
v 6 12 2
v 6 14 2
v 6 16 2
v 8 4 2
v 8 6 2
v 8 12 2
v 8 14 2
v 8 16 2
v -8 4 -0
v -8 6 -0
v -8 12 -0
v -8 14 -0
v -8 16 -0
v -6 4 -0
v -6 6 -0
v -6 12 -0
v -6 14 -0
v -6 16 -0
v -4 0 -0
v -4 2 -0
v -2 0 -0
v -2 2 -0
v 2 0 -0
v 2 2 -0
v 4 0 -0
v 4 2 -0
v 6 4 -0
v 6 6 -0
v 6 12 -0
v 6 14 -0
v 6 16 -0
v 8 4 -0
v 8 6 -0
v 8 12 -0
v 8 14 -0
v 8 16 -0
v -8 16 -2
v -8 18 -2
v -6 2 -2
v -6 4 -2
v -6 12 -2
v -6 14 -2
v -6 16 -2
v -6 18 -2
v -6 20 -2
v -6 26 -2
v -4 12 -2
v -4 14 -2
v -4 20 -2
v -4 26 -2
v -2 2 -2
v -2 4 -2
v 2 2 -2
v 2 4 -2
v 4 12 -2
v 4 14 -2
v 4 20 -2
v 4 26 -2
v 6 2 -2
v 6 4 -2
v 6 12 -2
v 6 14 -2
v 6 16 -2
v 6 18 -2
v 6 20 -2
v 6 26 -2
v 8 16 -2
v 8 18 -2
v -8 18 -4
v -8 20 -4
v -6 4 -4
v -6 6 -4
v -6 12 -4
v -6 14 -4
v -6 18 -4
v -6 20 -4
v -4 12 -4
v -4 14 -4
v -4 18 -4
v -4 20 -4
v -4 26 -4
v 4 12 -4
v 4 14 -4
v 4 18 -4
v 4 20 -4
v 4 26 -4
v 6 4 -4
v 6 6 -4
v 6 12 -4
v 6 14 -4
v 6 18 -4
v 6 20 -4
v 8 18 -4
v 8 20 -4
v -6 18 -6
v -6 20 -6
v -4 14 -6
v -4 18 -6
v 4 14 -6
v 4 18 -6
v 6 18 -6
v 6 20 -6
v -4 0 2
v -2 0 2
v 2 0 2
v 4 0 2
v -4 0 -0
v -2 0 -0
v 2 0 -0
v 4 0 -0
v -6 2 4
v -2 2 4
v 2 2 4
v 6 2 4
v -4 2 2
v -2 2 2
v 2 2 2
v 4 2 2
v -4 2 -0
v -2 2 -0
v 2 2 -0
v 4 2 -0
v -6 2 -2
v -2 2 -2
v 2 2 -2
v 6 2 -2
v -6 4 6
v 6 4 6
v -6 4 4
v -2 4 4
v 2 4 4
v 6 4 4
v -8 4 2
v -6 4 2
v 6 4 2
v 8 4 2
v -8 4 -0
v -6 4 -0
v 6 4 -0
v 8 4 -0
v -6 4 -2
v -2 4 -2
v 2 4 -2
v 6 4 -2
v -6 4 -4
v 6 4 -4
v -8 14 2
v -6 14 2
v 6 14 2
v 8 14 2
v -8 14 -0
v -6 14 -0
v 6 14 -0
v 8 14 -0
v -6 14 -2
v -4 14 -2
v 4 14 -2
v 6 14 -2
v -6 14 -4
v -4 14 -4
v 4 14 -4
v 6 14 -4
v -4 14 -6
v 4 14 -6
v -8 16 4
v -6 16 4
v 6 16 4
v 8 16 4
v -8 16 2
v -6 16 2
v 6 16 2
v 8 16 2
v -8 16 -0
v -6 16 -0
v 6 16 -0
v 8 16 -0
v -8 16 -2
v -6 16 -2
v 6 16 -2
v 8 16 -2
v -8 18 6
v 8 18 6
v -8 18 4
v -6 18 4
v 6 18 4
v 8 18 4
v -8 18 -2
v -6 18 -2
v 6 18 -2
v 8 18 -2
v -8 18 -4
v -6 18 -4
v -4 18 -4
v 4 18 -4
v 6 18 -4
v 8 18 -4
v -6 18 -6
v -4 18 -6
v 4 18 -6
v 6 18 -6
v -6 12 6
v -4 12 6
v 4 12 6
v 6 12 6
v -6 12 4
v -4 12 4
v 4 12 4
v 6 12 4
v -8 12 2
v -6 12 2
v 6 12 2
v 8 12 2
v -8 12 -0
v -6 12 -0
v 6 12 -0
v 8 12 -0
v -6 12 -2
v -4 12 -2
v 4 12 -2
v 6 12 -2
v -6 12 -4
v -4 12 -4
v 4 12 -4
v 6 12 -4
v -8 20 6
v 8 20 6
v -6 20 4
v 6 20 4
v -6 20 -2
v -4 20 -2
v 4 20 -2
v 6 20 -2
v -8 20 -4
v -6 20 -4
v -4 20 -4
v 4 20 -4
v 6 20 -4
v 8 20 -4
v -6 20 -6
v 6 20 -6
v -6 26 4
v 6 26 4
v -6 26 -2
v -4 26 -2
v 4 26 -2
v 6 26 -2
v -4 26 -4
v 4 26 -4

# faces
f 3/1/1 2/1/1 1/1/1
f 4/1/1 2/1/1 3/1/1
f 5/4/1 4/4/1 3/4/1
f 6/4/1 4/4/1 5/4/1
f 10/2/1 8/2/1 7/2/1
f 11/2/1 8/2/1 10/2/1
f 14/7/1 11/7/1 10/7/1
f 14/7/1 12/7/1 11/7/1
f 14/7/1 10/7/1 9/7/1
f 15/7/1 12/7/1 14/7/1
f 17/4/1 14/4/1 13/4/1
f 17/4/1 16/4/1 15/4/1
f 17/4/1 15/4/1 14/4/1
f 18/4/1 16/4/1 17/4/1
f 22/4/1 20/4/1 19/4/1
f 23/4/1 20/4/1 22/4/1
f 24/4/1 20/4/1 23/4/1
f 25/4/1 20/4/1 24/4/1
f 27/4/1 22/4/1 21/4/1
f 27/4/1 23/4/1 22/4/1
f 28/4/1 23/4/1 27/4/1
f 29/4/1 26/4/1 25/4/1
f 29/4/1 25/4/1 24/4/1
f 30/4/1 26/4/1 29/4/1
f 31/3/1 28/3/1 27/3/1
f 32/3/1 28/3/1 31/3/1
f 33/3/1 28/3/1 32/3/1
f 34/3/1 30/3/1 29/3/1
f 35/3/1 30/3/1 34/3/1
f 36/3/1 30/3/1 35/3/1
f 37/1/1 33/1/1 32/1/1
f 37/1/1 35/1/1 34/1/1
f 37/1/1 34/1/1 33/1/1
f 38/1/1 35/1/1 37/1/1
f 39/1/1 35/1/1 38/1/1
f 41/1/1 37/1/1 32/1/1
f 42/1/1 37/1/1 41/1/1
f 43/1/1 39/1/1 38/1/1
f 44/7/1 40/7/1 39/7/1
f 44/1/1 39/1/1 43/1/1
f 45/7/1 40/7/1 44/7/1
f 46/7/1 40/7/1 45/7/1
f 50/4/1 47/4/1 46/4/1
f 51/4/1 47/4/1 50/4/1
f 52/4/1 49/4/1 48/4/1
f 53/4/1 49/4/1 52/4/1
f 56/5/1 55/5/1 54/5/1
f 57/5/1 55/5/1 56/5/1
f 60/1/1 59/1/1 58/1/1
f 61/1/1 59/1/1 60/1/1
f 63/7/1 62/7/1 61/7/1
f 64/7/1 62/7/1 63/7/1
f 67/4/1 66/4/1 65/4/1
f 68/4/1 66/4/1 67/4/1
f 72/5/1 70/5/1 69/5/1
f 73/5/1 70/5/1 72/5/1
f 75/4/1 72/4/1 71/4/1
f 75/4/1 74/4/1 73/4/1
f 75/4/1 73/4/1 72/4/1
f 76/4/1 74/4/1 75/4/1
f 77/5/2 78/5/2 80/5/2
f 80/5/2 78/5/2 81/5/2
f 79/4/2 80/4/2 83/4/2
f 81/4/2 82/4/2 83/4/2
f 80/4/2 81/4/2 83/4/2
f 83/4/2 82/4/2 84/4/2
f 85/5/2 86/5/2 87/5/2
f 87/5/2 86/5/2 88/5/2
f 89/1/2 90/1/2 91/1/2
f 91/1/2 90/1/2 92/1/2
f 92/7/2 93/7/2 94/7/2
f 94/7/2 93/7/2 95/7/2
f 96/4/2 97/4/2 98/4/2
f 98/4/2 97/4/2 99/4/2
f 100/4/2 101/4/2 103/4/2
f 103/4/2 101/4/2 104/4/2
f 104/4/2 101/4/2 105/4/2
f 105/4/2 101/4/2 106/4/2
f 102/4/2 103/4/2 108/4/2
f 103/4/2 104/4/2 108/4/2
f 108/4/2 104/4/2 109/4/2
f 106/4/2 107/4/2 110/4/2
f 105/4/2 106/4/2 110/4/2
f 110/4/2 107/4/2 111/4/2
f 108/3/2 109/3/2 112/3/2
f 112/3/2 109/3/2 113/3/2
f 113/3/2 109/3/2 114/3/2
f 110/3/2 111/3/2 115/3/2
f 115/3/2 111/3/2 116/3/2
f 116/3/2 111/3/2 117/3/2
f 113/1/2 114/1/2 118/1/2
f 115/1/2 116/1/2 118/1/2
f 114/1/2 115/1/2 118/1/2
f 118/1/2 116/1/2 119/1/2
f 119/1/2 116/1/2 120/1/2
f 113/1/2 118/1/2 122/1/2
f 122/1/2 118/1/2 123/1/2
f 119/1/2 120/1/2 124/1/2
f 120/7/2 121/7/2 125/7/2
f 124/1/2 120/1/2 125/1/2
f 125/7/2 121/7/2 126/7/2
f 126/7/2 121/7/2 127/7/2
f 127/4/2 128/4/2 131/4/2
f 131/4/2 128/4/2 132/4/2
f 129/4/2 130/4/2 133/4/2
f 133/4/2 130/4/2 134/4/2
f 135/1/2 136/1/2 137/1/2
f 137/1/2 136/1/2 138/1/2
f 137/4/2 138/4/2 139/4/2
f 139/4/2 138/4/2 140/4/2
f 141/2/2 142/2/2 144/2/2
f 144/2/2 142/2/2 145/2/2
f 144/7/2 145/7/2 148/7/2
f 145/7/2 146/7/2 148/7/2
f 143/7/2 144/7/2 148/7/2
f 148/7/2 146/7/2 149/7/2
f 147/4/2 148/4/2 151/4/2
f 149/4/2 150/4/2 151/4/2
f 148/4/2 149/4/2 151/4/2
f 151/4/2 150/4/2 152/4/2
f 158/3/3 157/3/3 156/3/3
f 159/3/3 157/3/3 158/3/3
f 160/3/3 158/3/3 156/3/3
f 161/4/3 159/4/3 158/4/3
f 161/3/3 158/3/3 160/3/3
f 162/3/3 160/3/3 156/3/3
f 162/4/3 161/4/3 160/4/3
f 163/4/3 159/4/3 161/4/3
f 163/4/3 161/4/3 162/4/3
f 164/3/3 163/3/3 162/3/3
f 164/4/3 159/4/3 163/4/3
f 165/4/3 159/4/3 164/4/3
f 166/4/3 156/4/3 155/4/3
f 167/3/3 162/3/3 156/3/3
f 167/4/3 156/4/3 166/4/3
f 167/3/3 164/3/3 162/3/3
f 167/3/3 165/3/3 164/3/3
f 168/3/3 165/3/3 167/3/3
f 169/4/3 154/4/3 153/4/3
f 170/4/3 154/4/3 169/4/3
f 176/7/3 172/7/3 171/7/3
f 177/7/3 172/7/3 176/7/3
f 180/1/3 176/1/3 175/1/3
f 180/1/3 177/1/3 176/1/3
f 181/1/3 177/1/3 180/1/3
f 182/1/3 177/1/3 181/1/3
f 183/4/3 174/4/3 173/4/3
f 184/4/3 174/4/3 183/4/3
f 185/1/3 181/1/3 180/1/3
f 185/8/3 182/8/3 181/8/3
f 186/1/3 177/1/3 182/1/3
f 186/8/3 182/8/3 185/8/3
f 189/1/3 185/1/3 180/1/3
f 189/1/3 186/1/3 185/1/3
f 190/1/3 177/1/3 186/1/3
f 190/1/3 186/1/3 189/1/3
f 191/1/3 189/1/3 180/1/3
f 192/8/3 190/8/3 189/8/3
f 192/1/3 189/1/3 191/1/3
f 193/1/3 177/1/3 190/1/3
f 193/8/3 190/8/3 192/8/3
f 194/4/3 188/4/3 187/4/3
f 195/4/3 188/4/3 194/4/3
f 196/1/3 192/1/3 191/1/3
f 196/1/3 193/1/3 192/1/3
f 197/1/3 177/1/3 193/1/3
f 197/1/3 193/1/3 196/1/3
f 198/1/3 177/1/3 197/1/3
f 199/4/3 179/4/3 178/4/3
f 200/4/3 179/4/3 199/4/3
f 201/7/3 198/7/3 197/7/3
f 202/7/3 198/7/3 201/7/3
f 208/1/3 204/1/3 203/1/3
f 209/4/3 205/4/3 204/4/3
f 209/1/3 204/1/3 208/1/3
f 210/4/3 205/4/3 209/4/3
f 211/2/3 207/2/3 206/2/3
f 212/2/3 207/2/3 211/2/3
f 215/5/3 214/5/3 213/5/3
f 216/5/3 214/5/3 215/5/3
f 219/5/3 218/5/3 217/5/3
f 220/5/3 218/5/3 219/5/3
f 226/1/3 222/1/3 221/1/3
f 227/4/3 223/4/3 222/4/3
f 227/1/3 222/1/3 226/1/3
f 228/4/3 223/4/3 227/4/3
f 229/2/3 225/2/3 224/2/3
f 230/2/3 225/2/3 229/2/3
f 231/1/4 232/1/4 236/1/4
f 232/4/4 233/4/4 237/4/4
f 236/1/4 232/1/4 237/1/4
f 237/4/4 233/4/4 238/4/4
f 234/2/4 235/2/4 239/2/4
f 239/2/4 235/2/4 240/2/4
f 241/5/4 242/5/4 243/5/4
f 243/5/4 242/5/4 244/5/4
f 245/5/4 246/5/4 247/5/4
f 247/5/4 246/5/4 248/5/4
f 249/1/4 250/1/4 254/1/4
f 250/4/4 251/4/4 255/4/4
f 254/1/4 250/1/4 255/1/4
f 255/4/4 251/4/4 256/4/4
f 252/2/4 253/2/4 257/2/4
f 257/2/4 253/2/4 258/2/4
f 259/7/4 260/7/4 265/7/4
f 265/7/4 260/7/4 266/7/4
f 263/1/4 264/1/4 269/1/4
f 269/1/4 264/1/4 270/1/4
f 267/4/4 268/4/4 271/4/4
f 271/4/4 268/4/4 272/4/4
f 261/4/4 262/4/4 273/4/4
f 273/4/4 262/4/4 274/4/4
f 275/4/4 276/4/4 281/4/4
f 281/4/4 276/4/4 282/4/4
f 277/1/4 278/1/4 283/1/4
f 283/1/4 278/1/4 284/1/4
f 279/4/4 280/4/4 287/4/4
f 287/4/4 280/4/4 288/4/4
f 285/7/4 286/7/4 289/7/4
f 289/7/4 286/7/4 290/7/4
f 291/4/4 292/4/4 297/4/4
f 297/4/4 292/4/4 298/4/4
f 294/3/4 295/3/4 299/3/4
f 296/7/4 297/7/4 300/7/4
f 300/7/4 297/7/4 301/7/4
f 294/3/4 299/3/4 304/3/4
f 299/1/4 300/1/4 304/1/4
f 304/1/4 300/1/4 305/1/4
f 302/4/4 303/4/4 307/4/4
f 307/4/4 303/4/4 308/4/4
f 293/4/4 294/4/4 309/4/4
f 294/3/4 304/3/4 310/3/4
f 309/4/4 294/4/4 310/4/4
f 310/3/4 304/3/4 311/3/4
f 305/7/4 306/7/4 312/7/4
f 312/7/4 306/7/4 313/7/4
f 313/4/4 314/4/4 315/4/4
f 315/4/4 314/4/4 316/4/4
f 317/4/4 318/4/4 320/4/4
f 319/7/4 320/7/4 321/7/4
f 320/4/4 318/4/4 322/4/4
f 321/7/4 320/7/4 322/7/4
f 322/4/4 318/4/4 323/4/4
f 323/4/4 318/4/4 324/4/4
f 329/5/5 326/5/5 325/5/5
f 330/5/5 326/5/5 329/5/5
f 331/5/5 328/5/5 327/5/5
f 332/5/5 328/5/5 331/5/5
f 337/4/5 334/4/5 333/4/5
f 338/4/5 334/4/5 337/4/5
f 339/4/5 336/4/5 335/4/5
f 340/4/5 336/4/5 339/4/5
f 341/4/5 337/4/5 333/4/5
f 344/4/5 336/4/5 340/4/5
f 345/4/5 342/4/5 341/4/5
f 345/4/5 341/4/5 333/4/5
f 346/4/5 342/4/5 345/4/5
f 347/4/5 344/4/5 343/4/5
f 348/4/5 336/4/5 344/4/5
f 348/4/5 344/4/5 347/4/5
f 351/4/5 350/4/5 349/4/5
f 352/4/5 350/4/5 351/4/5
f 353/4/5 350/4/5 352/4/5
f 354/4/5 350/4/5 353/4/5
f 359/1/5 356/1/5 355/1/5
f 360/1/5 356/1/5 359/1/5
f 361/1/5 358/1/5 357/1/5
f 362/1/5 358/1/5 361/1/5
f 364/4/5 353/4/5 352/4/5
f 365/4/5 353/4/5 364/4/5
f 367/4/5 364/4/5 363/4/5
f 367/4/5 366/4/5 365/4/5
f 367/4/5 365/4/5 364/4/5
f 368/4/5 366/4/5 367/4/5
f 373/2/5 370/2/5 369/2/5
f 374/2/5 370/2/5 373/2/5
f 375/2/5 372/2/5 371/2/5
f 376/2/5 372/2/5 375/2/5
f 381/7/5 378/7/5 377/7/5
f 382/7/5 378/7/5 381/7/5
f 383/7/5 380/7/5 379/7/5
f 384/7/5 380/7/5 383/7/5
f 385/7/5 383/7/5 382/7/5
f 386/7/5 383/7/5 385/7/5
f 391/7/5 388/7/5 387/7/5
f 392/7/5 388/7/5 391/7/5
f 393/7/5 390/7/5 389/7/5
f 394/7/5 390/7/5 393/7/5
f 399/7/5 396/7/5 395/7/5
f 400/7/5 396/7/5 399/7/5
f 401/7/5 398/7/5 397/7/5
f 402/7/5 398/7/5 401/7/5
f 405/4/5 404/4/5 403/4/5
f 406/4/5 404/4/5 405/4/5
f 407/4/5 404/4/5 406/4/5
f 408/4/5 404/4/5 407/4/5
f 413/4/5 410/4/5 409/4/5
f 414/4/5 410/4/5 413/4/5
f 417/4/5 412/4/5 411/4/5
f 418/4/5 412/4/5 417/4/5
f 419/4/5 415/4/5 414/4/5
f 420/4/5 415/4/5 419/4/5
f 421/4/5 417/4/5 416/4/5
f 422/4/5 417/4/5 421/4/5
f 423/3/6 424/3/6 427/3/6
f 424/4/6 425/4/6 428/4/6
f 427/3/6 424/3/6 428/3/6
f 425/3/6 426/3/6 429/3/6
f 428/4/6 425/4/6 429/4/6
f 429/3/6 426/3/6 430/3/6
f 431/4/6 432/4/6 435/4/6
f 435/4/6 432/4/6 436/4/6
f 433/4/6 434/4/6 437/4/6
f 437/4/6 434/4/6 438/4/6
f 439/3/6 440/3/6 443/3/6
f 443/3/6 440/3/6 444/3/6
f 441/3/6 442/3/6 445/3/6
f 445/3/6 442/3/6 446/3/6
f 447/4/6 448/4/6 449/4/6
f 449/4/6 448/4/6 450/4/6
f 447/4/6 449/4/6 451/4/6
f 450/4/6 448/4/6 454/4/6
f 451/4/6 452/4/6 455/4/6
f 447/4/6 451/4/6 455/4/6
f 455/4/6 452/4/6 456/4/6
f 456/4/6 452/4/6 457/4/6
f 453/4/6 454/4/6 458/4/6
f 454/4/6 448/4/6 459/4/6
f 458/4/6 454/4/6 459/4/6
f 459/4/6 448/4/6 460/4/6
f 456/4/6 457/4/6 461/4/6
f 457/4/6 458/4/6 461/4/6
f 458/4/6 459/4/6 461/4/6
f 461/4/6 459/4/6 462/4/6
f 463/4/6 464/4/6 465/4/6
f 465/4/6 464/4/6 466/4/6
f 466/4/6 464/4/6 467/4/6
f 467/4/6 464/4/6 468/4/6
f 466/4/6 467/4/6 469/4/6
f 469/4/6 467/4/6 470/4/6
