# MagicaVoxel @ Ephtracy

# material
mtllib walk1.mtl
usemtl palette

# normals
vn -1 0 0
vn 1 0 0
vn 0 0 1
vn 0 0 -1
vn 0 -1 0
vn 0 1 0

# texcoords
vt 0.0332031 0.5
vt 0.0605469 0.5
vt 0.279297 0.5
vt 0.869141 0.5
vt 0.873047 0.5
vt 0.962891 0.5
vt 0.966797 0.5
vt 0.994141 0.5

# verts
v -8 4 -0.5
v -8 4 -2.5
v -8 6 0.5
v -8 6 -0.5
v -8 6 -1.5
v -8 6 -2.5
v -8 10 1.5
v -8 10 0.5
v -8 10 -0.5
v -8 10 -1.5
v -8 12 1.5
v -8 12 -0.5
v -8 14 2.5
v -8 14 0.5
v -8 16 4.5
v -8 16 2.5
v -8 16 0.5
v -8 16 -1.5
v -8 18 6.5
v -8 18 4.5
v -8 18 -1.5
v -8 18 -3.5
v -8 20 6.5
v -8 20 -3.5
v -6 2 4.5
v -6 2 -1.5
v -6 4 5.5
v -6 4 4.5
v -6 4 -0.5
v -6 4 -1.5
v -6 4 -2.5
v -6 4 -4.5
v -6 6 5.5
v -6 6 0.5
v -6 6 -0.5
v -6 6 -1.5
v -6 6 -2.5
v -6 6 -4.5
v -6 10 1.5
v -6 10 0.5
v -6 10 -0.5
v -6 10 -1.5
v -6 12 5.5
v -6 12 4.5
v -6 12 1.5
v -6 12 -0.5
v -6 12 -1.5
v -6 12 -4.5
v -6 14 2.5
v -6 14 0.5
v -6 14 -1.5
v -6 14 -3.5
v -6 16 4.5
v -6 16 3.5
v -6 16 2.5
v -6 16 0.5
v -6 16 -1.5
v -6 18 3.5
v -6 18 2.5
v -6 18 -1.5
v -6 18 -3.5
v -6 18 -5.5
v -6 20 4.5
v -6 20 -1.5
v -6 20 -3.5
v -6 20 -5.5
v -6 26 4.5
v -6 26 -1.5
v -4 0 3.5
v -4 0 1.5
v -4 2 3.5
v -4 2 1.5
v -4 12 -1.5
v -4 12 -3.5
v -4 14 -1.5
v -4 14 -3.5
v -4 14 -5.5
v -4 18 -3.5
v -4 18 -5.5
v -4 20 -1.5
v -4 20 -3.5
v -4 26 -1.5
v -4 26 -3.5
v 2 0 -0.5
v 2 0 -2.5
v 2 2 2.5
v 2 2 -0.5
v 2 2 -2.5
v 2 2 -3.5
v 2 4 2.5
v 2 4 -3.5
v -7 16 3.5
v -7 16 2.5
v -7 18 3.5
v -7 18 2.5
v -2 0 3.5
v -2 0 1.5
v -2 2 4.5
v -2 2 3.5
v -2 2 1.5
v -2 2 -1.5
v -2 4 4.5
v -2 4 -1.5
v 4 0 -0.5
v 4 0 -2.5
v 4 2 -0.5
v 4 2 -2.5
v 4 12 -1.5
v 4 12 -3.5
v 4 14 -1.5
v 4 14 -3.5
v 4 14 -5.5
v 4 18 -3.5
v 4 18 -5.5
v 4 20 -1.5
v 4 20 -3.5
v 4 26 -1.5
v 4 26 -3.5
v 6 2 2.5
v 6 2 -3.5
v 6 4 5.5
v 6 4 3.5
v 6 4 2.5
v 6 4 1.5
v 6 4 -3.5
v 6 4 -4.5
v 6 6 5.5
v 6 6 3.5
v 6 6 2.5
v 6 6 1.5
v 6 6 0.5
v 6 6 -4.5
v 6 10 2.5
v 6 10 1.5
v 6 10 0.5
v 6 10 -0.5
v 6 12 5.5
v 6 12 4.5
v 6 12 1.5
v 6 12 -0.5
v 6 12 -1.5
v 6 12 -4.5
v 6 14 2.5
v 6 14 0.5
v 6 14 -1.5
v 6 14 -3.5
v 6 16 4.5
v 6 16 2.5
v 6 16 0.5
v 6 16 -1.5
v 6 18 -1.5
v 6 18 -3.5
v 6 18 -5.5
v 6 20 4.5
v 6 20 -1.5
v 6 20 -3.5
v 6 20 -5.5
v 6 26 4.5
v 6 26 -1.5
v 8 4 3.5
v 8 4 1.5
v 8 6 3.5
v 8 6 2.5
v 8 6 1.5
v 8 6 0.5
v 8 10 2.5
v 8 10 1.5
v 8 10 0.5
v 8 10 -0.5
v 8 12 1.5
v 8 12 -0.5
v 8 14 2.5
v 8 14 0.5
v 8 16 4.5
v 8 16 2.5
v 8 16 0.5
v 8 16 -1.5
v 8 18 6.5
v 8 18 4.5
v 8 18 -1.5
v 8 18 -3.5
v 8 20 6.5
v 8 20 -3.5
v -8 18 6.5
v -8 20 6.5
v 8 18 6.5
v 8 20 6.5
v -6 4 5.5
v -6 6 5.5
v -6 12 5.5
v -4 10 5.5
v -4 12 5.5
v -2 8 5.5
v -2 10 5.5
v 2 8 5.5
v 2 10 5.5
v 4 10 5.5
v 4 12 5.5
v 6 4 5.5
v 6 6 5.5
v 6 12 5.5
v -8 16 4.5
v -8 18 4.5
v -6 2 4.5
v -6 4 4.5
v -6 12 4.5
v -6 16 4.5
v -6 18 4.5
v -6 20 4.5
v -6 26 4.5
v -4 12 4.5
v -4 14 4.5
v -4 16 4.5
v -2 2 4.5
v -2 4 4.5
v -2 14 4.5
v -2 16 4.5
v 2 14 4.5
v 2 16 4.5
v 4 12 4.5
v 4 14 4.5
v 4 16 4.5
v 6 12 4.5
v 6 16 4.5
v 6 18 4.5
v 6 20 4.5
v 6 26 4.5
v 8 16 4.5
v 8 18 4.5
v -4 0 3.5
v -4 2 3.5
v -2 0 3.5
v -2 2 3.5
v 6 4 3.5
v 6 6 3.5
v 8 4 3.5
v 8 6 3.5
v -8 14 2.5
v -8 16 2.5
v -7 16 2.5
v -7 18 2.5
v -6 14 2.5
v -6 16 2.5
v -6 18 2.5
v 2 2 2.5
v 2 4 2.5
v 6 2 2.5
v 6 4 2.5
v 6 6 2.5
v 6 10 2.5
v 6 14 2.5
v 6 16 2.5
v 8 6 2.5
v 8 10 2.5
v 8 14 2.5
v 8 16 2.5
v -8 10 1.5
v -8 12 1.5
v -6 10 1.5
v -6 12 1.5
v 6 10 1.5
v 6 12 1.5
v 8 10 1.5
v 8 12 1.5
v -8 6 0.5
v -8 10 0.5
v -6 6 0.5
v -6 10 0.5
v -8 4 -0.5
v -8 6 -0.5
v -6 4 -0.5
v -6 6 -0.5
v 2 0 -0.5
v 2 2 -0.5
v 4 0 -0.5
v 4 2 -0.5
v -7 16 3.5
v -7 18 3.5
v -6 16 3.5
v -6 18 3.5
v -4 0 1.5
v -4 2 1.5
v -2 0 1.5
v -2 2 1.5
v 6 4 1.5
v 6 6 1.5
v 8 4 1.5
v 8 6 1.5
v -8 14 0.5
v -8 16 0.5
v -6 14 0.5
v -6 16 0.5
v 6 6 0.5
v 6 10 0.5
v 6 14 0.5
v 6 16 0.5
v 8 6 0.5
v 8 10 0.5
v 8 14 0.5
v 8 16 0.5
v -8 10 -0.5
v -8 12 -0.5
v -6 10 -0.5
v -6 12 -0.5
v 6 10 -0.5
v 6 12 -0.5
v 8 10 -0.5
v 8 12 -0.5
v -8 6 -1.5
v -8 10 -1.5
v -8 16 -1.5
v -8 18 -1.5
v -6 2 -1.5
v -6 4 -1.5
v -6 6 -1.5
v -6 10 -1.5
v -6 12 -1.5
v -6 14 -1.5
v -6 16 -1.5
v -6 18 -1.5
v -6 20 -1.5
v -6 26 -1.5
v -4 12 -1.5
v -4 14 -1.5
v -4 20 -1.5
v -4 26 -1.5
v -2 2 -1.5
v -2 4 -1.5
v 4 12 -1.5
v 4 14 -1.5
v 4 20 -1.5
v 4 26 -1.5
v 6 12 -1.5
v 6 14 -1.5
v 6 16 -1.5
v 6 18 -1.5
v 6 20 -1.5
v 6 26 -1.5
v 8 16 -1.5
v 8 18 -1.5
v -8 4 -2.5
v -8 6 -2.5
v -6 4 -2.5
v -6 6 -2.5
v 2 0 -2.5
v 2 2 -2.5
v 4 0 -2.5
v 4 2 -2.5
v -8 18 -3.5
v -8 20 -3.5
v -6 14 -3.5
v -6 18 -3.5
v -6 20 -3.5
v -4 12 -3.5
v -4 14 -3.5
v -4 18 -3.5
v -4 20 -3.5
v -4 26 -3.5
v 2 2 -3.5
v 2 4 -3.5
v 4 12 -3.5
v 4 14 -3.5
v 4 18 -3.5
v 4 20 -3.5
v 4 26 -3.5
v 6 2 -3.5
v 6 4 -3.5
v 6 14 -3.5
v 6 18 -3.5
v 6 20 -3.5
v 8 18 -3.5
v 8 20 -3.5
v -6 4 -4.5
v -6 6 -4.5
v -6 12 -4.5
v 6 4 -4.5
v 6 6 -4.5
v 6 12 -4.5
v -6 18 -5.5
v -6 20 -5.5
v -4 14 -5.5
v -4 18 -5.5
v 4 14 -5.5
v 4 18 -5.5
v 6 18 -5.5
v 6 20 -5.5
v -4 0 3.5
v -2 0 3.5
v -4 0 1.5
v -2 0 1.5
v 2 0 -0.5
v 4 0 -0.5
v 2 0 -2.5
v 4 0 -2.5
v -6 2 4.5
v -2 2 4.5
v -4 2 3.5
v -2 2 3.5
v 2 2 2.5
v 6 2 2.5
v -4 2 1.5
v -2 2 1.5
v 2 2 -0.5
v 4 2 -0.5
v -6 2 -1.5
v -2 2 -1.5
v 2 2 -2.5
v 4 2 -2.5
v 2 2 -3.5
v 6 2 -3.5
v -6 4 5.5
v 6 4 5.5
v -6 4 4.5
v -2 4 4.5
v 6 4 3.5
v 8 4 3.5
v 2 4 2.5
v 6 4 2.5
v 6 4 1.5
v 8 4 1.5
v -8 4 -0.5
v -6 4 -0.5
v -6 4 -1.5
v -2 4 -1.5
v -8 4 -2.5
v -6 4 -2.5
v 2 4 -3.5
v 6 4 -3.5
v -6 4 -4.5
v 6 4 -4.5
v 6 6 1.5
v 8 6 1.5
v -8 6 0.5
v -6 6 0.5
v 6 6 0.5
v 8 6 0.5
v -8 6 -0.5
v -6 6 -0.5
v -8 10 1.5
v -6 10 1.5
v -8 10 0.5
v -6 10 0.5
v 6 10 0.5
v 8 10 0.5
v 6 10 -0.5
v 8 10 -0.5
v -8 14 2.5
v -6 14 2.5
v 6 14 2.5
v 8 14 2.5
v -8 14 0.5
v -6 14 0.5
v 6 14 0.5
v 8 14 0.5
v -6 14 -1.5
v -4 14 -1.5
v 4 14 -1.5
v 6 14 -1.5
v -6 14 -3.5
v -4 14 -3.5
v 4 14 -3.5
v 6 14 -3.5
v -4 14 -5.5
v 4 14 -5.5
v -8 16 4.5
v -6 16 4.5
v 6 16 4.5
v 8 16 4.5
v -7 16 3.5
v -6 16 3.5
v -8 16 2.5
v -7 16 2.5
v 6 16 2.5
v 8 16 2.5
v -8 16 0.5
v -6 16 0.5
v 6 16 0.5
v 8 16 0.5
v -8 16 -1.5
v -6 16 -1.5
v 6 16 -1.5
v 8 16 -1.5
v -8 18 6.5
v 8 18 6.5
v -8 18 4.5
v -6 18 4.5
v 6 18 4.5
v 8 18 4.5
v -7 18 3.5
v -6 18 3.5
v -7 18 2.5
v -6 18 2.5
v -8 18 -1.5
v -6 18 -1.5
v 6 18 -1.5
v 8 18 -1.5
v -8 18 -3.5
v -6 18 -3.5
v -4 18 -3.5
v 4 18 -3.5
v 6 18 -3.5
v 8 18 -3.5
v -6 18 -5.5
v -4 18 -5.5
v 4 18 -5.5
v 6 18 -5.5
v 6 6 3.5
v 8 6 3.5
v 6 6 2.5
v 8 6 2.5
v -8 6 -1.5
v -6 6 -1.5
v -8 6 -2.5
v -6 6 -2.5
v 6 10 2.5
v 8 10 2.5
v 6 10 1.5
v 8 10 1.5
v -8 10 -0.5
v -6 10 -0.5
v -8 10 -1.5
v -6 10 -1.5
v -6 12 5.5
v -4 12 5.5
v 4 12 5.5
v 6 12 5.5
v -6 12 4.5
v -4 12 4.5
v 4 12 4.5
v 6 12 4.5
v -8 12 1.5
v -6 12 1.5
v 6 12 1.5
v 8 12 1.5
v -8 12 -0.5
v -6 12 -0.5
v 6 12 -0.5
v 8 12 -0.5
v -6 12 -1.5
v -4 12 -1.5
v 4 12 -1.5
v 6 12 -1.5
v -4 12 -3.5
v 4 12 -3.5
v -6 12 -4.5
v 6 12 -4.5
v -8 20 6.5
v 8 20 6.5
v -6 20 4.5
v 6 20 4.5
v -6 20 -1.5
v -4 20 -1.5
v 4 20 -1.5
v 6 20 -1.5
v -8 20 -3.5
v -6 20 -3.5
v -4 20 -3.5
v 4 20 -3.5
v 6 20 -3.5
v 8 20 -3.5
v -6 20 -5.5
v 6 20 -5.5
v -6 26 4.5
v 6 26 4.5
v -6 26 -1.5
v -4 26 -1.5
v 4 26 -1.5
v 6 26 -1.5
v -4 26 -3.5
v 4 26 -3.5

# faces
f 4/1/1 2/1/1 1/1/1
f 5/1/1 2/1/1 4/1/1
f 6/1/1 2/1/1 5/1/1
f 8/4/1 4/4/1 3/4/1
f 8/4/1 5/4/1 4/4/1
f 9/4/1 5/4/1 8/4/1
f 10/4/1 5/4/1 9/4/1
f 11/4/1 8/4/1 7/4/1
f 11/4/1 9/4/1 8/4/1
f 12/4/1 9/4/1 11/4/1
f 16/2/1 14/2/1 13/2/1
f 17/2/1 14/2/1 16/2/1
f 20/7/1 17/7/1 16/7/1
f 20/7/1 18/7/1 17/7/1
f 20/7/1 16/7/1 15/7/1
f 21/7/1 18/7/1 20/7/1
f 23/4/1 21/4/1 20/4/1
f 23/4/1 22/4/1 21/4/1
f 23/4/1 20/4/1 19/4/1
f 24/4/1 22/4/1 23/4/1
f 28/4/1 26/4/1 25/4/1
f 29/4/1 26/4/1 28/4/1
f 30/4/1 26/4/1 29/4/1
f 33/4/1 28/4/1 27/4/1
f 33/4/1 29/4/1 28/4/1
f 34/4/1 29/4/1 33/4/1
f 35/4/1 29/4/1 34/4/1
f 37/4/1 32/4/1 31/4/1
f 38/4/1 32/4/1 37/4/1
f 39/3/1 34/3/1 33/3/1
f 40/3/1 34/3/1 39/3/1
f 42/3/1 38/3/1 37/3/1
f 42/3/1 37/3/1 36/3/1
f 43/3/1 39/3/1 33/3/1
f 44/3/1 39/3/1 43/3/1
f 45/3/1 39/3/1 44/3/1
f 46/3/1 42/3/1 41/3/1
f 47/3/1 38/3/1 42/3/1
f 47/3/1 42/3/1 46/3/1
f 48/3/1 38/3/1 47/3/1
f 49/1/1 45/1/1 44/1/1
f 49/1/1 46/1/1 45/1/1
f 49/1/1 47/1/1 46/1/1
f 50/1/1 47/1/1 49/1/1
f 51/1/1 47/1/1 50/1/1
f 53/1/1 49/1/1 44/1/1
f 54/1/1 49/1/1 53/1/1
f 55/1/1 49/1/1 54/1/1
f 56/1/1 51/1/1 50/1/1
f 57/7/1 52/7/1 51/7/1
f 57/1/1 51/1/1 56/1/1
f 58/6/1 55/6/1 54/6/1
f 59/6/1 55/6/1 58/6/1
f 60/7/1 52/7/1 57/7/1
f 61/7/1 52/7/1 60/7/1
f 65/4/1 62/4/1 61/4/1
f 66/4/1 62/4/1 65/4/1
f 67/4/1 64/4/1 63/4/1
f 68/4/1 64/4/1 67/4/1
f 71/5/1 70/5/1 69/5/1
f 72/5/1 70/5/1 71/5/1
f 75/1/1 74/1/1 73/1/1
f 76/1/1 74/1/1 75/1/1
f 78/7/1 77/7/1 76/7/1
f 79/7/1 77/7/1 78/7/1
f 82/4/1 81/4/1 80/4/1
f 83/4/1 81/4/1 82/4/1
f 87/5/1 85/5/1 84/5/1
f 88/5/1 85/5/1 87/5/1
f 90/4/1 87/4/1 86/4/1
f 90/4/1 89/4/1 88/4/1
f 90/4/1 88/4/1 87/4/1
f 91/4/1 89/4/1 90/4/1
f 92/7/2 93/7/2 94/7/2
f 94/7/2 93/7/2 95/7/2
f 96/5/2 97/5/2 99/5/2
f 99/5/2 97/5/2 100/5/2
f 98/4/2 99/4/2 102/4/2
f 100/4/2 101/4/2 102/4/2
f 99/4/2 100/4/2 102/4/2
f 102/4/2 101/4/2 103/4/2
f 104/5/2 105/5/2 106/5/2
f 106/5/2 105/5/2 107/5/2
f 108/1/2 109/1/2 110/1/2
f 110/1/2 109/1/2 111/1/2
f 111/7/2 112/7/2 113/7/2
f 113/7/2 112/7/2 114/7/2
f 115/4/2 116/4/2 117/4/2
f 117/4/2 116/4/2 118/4/2
f 119/4/2 120/4/2 123/4/2
f 123/4/2 120/4/2 124/4/2
f 124/4/2 120/4/2 125/4/2
f 121/4/2 122/4/2 127/4/2
f 127/4/2 122/4/2 128/4/2
f 125/4/2 126/4/2 130/4/2
f 124/4/2 125/4/2 130/4/2
f 130/4/2 126/4/2 131/4/2
f 131/4/2 126/4/2 132/4/2
f 128/3/2 129/3/2 133/3/2
f 127/3/2 128/3/2 133/3/2
f 131/3/2 132/3/2 135/3/2
f 135/3/2 132/3/2 136/3/2
f 133/3/2 134/3/2 137/3/2
f 127/3/2 133/3/2 137/3/2
f 137/3/2 134/3/2 138/3/2
f 138/3/2 134/3/2 139/3/2
f 136/3/2 132/3/2 140/3/2
f 140/3/2 132/3/2 141/3/2
f 141/3/2 132/3/2 142/3/2
f 138/1/2 139/1/2 143/1/2
f 140/1/2 141/1/2 143/1/2
f 139/1/2 140/1/2 143/1/2
f 143/1/2 141/1/2 144/1/2
f 144/1/2 141/1/2 145/1/2
f 138/1/2 143/1/2 147/1/2
f 147/1/2 143/1/2 148/1/2
f 144/1/2 145/1/2 149/1/2
f 145/7/2 146/7/2 150/7/2
f 149/1/2 145/1/2 150/1/2
f 150/7/2 146/7/2 151/7/2
f 151/7/2 146/7/2 152/7/2
f 152/4/2 153/4/2 156/4/2
f 156/4/2 153/4/2 157/4/2
f 154/4/2 155/4/2 158/4/2
f 158/4/2 155/4/2 159/4/2
f 160/1/2 161/1/2 162/1/2
f 162/1/2 161/1/2 163/1/2
f 163/1/2 161/1/2 164/1/2
f 164/4/2 165/4/2 166/4/2
f 163/4/2 164/4/2 166/4/2
f 166/4/2 165/4/2 167/4/2
f 167/4/2 165/4/2 168/4/2
f 168/4/2 169/4/2 170/4/2
f 167/4/2 168/4/2 170/4/2
f 170/4/2 169/4/2 171/4/2
f 172/2/2 173/2/2 175/2/2
f 175/2/2 173/2/2 176/2/2
f 175/7/2 176/7/2 179/7/2
f 176/7/2 177/7/2 179/7/2
f 174/7/2 175/7/2 179/7/2
f 179/7/2 177/7/2 180/7/2
f 178/4/2 179/4/2 182/4/2
f 180/4/2 181/4/2 182/4/2
f 179/4/2 180/4/2 182/4/2
f 182/4/2 181/4/2 183/4/2
f 186/4/3 185/4/3 184/4/3
f 187/4/3 185/4/3 186/4/3
f 191/3/3 190/3/3 189/3/3
f 192/3/3 190/3/3 191/3/3
f 193/3/3 191/3/3 189/3/3
f 194/4/3 192/4/3 191/4/3
f 194/3/3 191/3/3 193/3/3
f 195/3/3 193/3/3 189/3/3
f 195/4/3 194/4/3 193/4/3
f 196/4/3 192/4/3 194/4/3
f 196/4/3 194/4/3 195/4/3
f 197/3/3 196/3/3 195/3/3
f 197/4/3 192/4/3 196/4/3
f 198/4/3 192/4/3 197/4/3
f 199/4/3 189/4/3 188/4/3
f 200/3/3 195/3/3 189/3/3
f 200/4/3 189/4/3 199/4/3
f 200/3/3 197/3/3 195/3/3
f 200/3/3 198/3/3 197/3/3
f 201/3/3 198/3/3 200/3/3
f 207/7/3 203/7/3 202/7/3
f 208/7/3 203/7/3 207/7/3
f 211/1/3 207/1/3 206/1/3
f 211/1/3 208/1/3 207/1/3
f 212/1/3 208/1/3 211/1/3
f 213/1/3 208/1/3 212/1/3
f 214/4/3 205/4/3 204/4/3
f 215/4/3 205/4/3 214/4/3
f 216/1/3 212/1/3 211/1/3
f 216/8/3 213/8/3 212/8/3
f 217/1/3 208/1/3 213/1/3
f 217/8/3 213/8/3 216/8/3
f 218/1/3 216/1/3 211/1/3
f 218/1/3 217/1/3 216/1/3
f 219/1/3 208/1/3 217/1/3
f 219/1/3 217/1/3 218/1/3
f 220/1/3 218/1/3 211/1/3
f 221/8/3 219/8/3 218/8/3
f 221/1/3 218/1/3 220/1/3
f 222/1/3 208/1/3 219/1/3
f 222/8/3 219/8/3 221/8/3
f 223/1/3 221/1/3 220/1/3
f 223/1/3 222/1/3 221/1/3
f 224/1/3 208/1/3 222/1/3
f 224/1/3 222/1/3 223/1/3
f 225/1/3 208/1/3 224/1/3
f 226/4/3 210/4/3 209/4/3
f 227/4/3 210/4/3 226/4/3
f 228/7/3 225/7/3 224/7/3
f 229/7/3 225/7/3 228/7/3
f 232/5/3 231/5/3 230/5/3
f 233/5/3 231/5/3 232/5/3
f 236/1/3 235/1/3 234/1/3
f 237/1/3 235/1/3 236/1/3
f 240/2/3 239/2/3 238/2/3
f 242/2/3 240/2/3 238/2/3
f 243/6/3 241/6/3 240/6/3
f 243/2/3 240/2/3 242/2/3
f 244/6/3 241/6/3 243/6/3
f 247/4/3 246/4/3 245/4/3
f 248/4/3 246/4/3 247/4/3
f 253/4/3 250/4/3 249/4/3
f 254/4/3 250/4/3 253/4/3
f 255/2/3 252/2/3 251/2/3
f 256/2/3 252/2/3 255/2/3
f 259/4/3 258/4/3 257/4/3
f 260/4/3 258/4/3 259/4/3
f 263/4/3 262/4/3 261/4/3
f 264/4/3 262/4/3 263/4/3
f 267/4/3 266/4/3 265/4/3
f 268/4/3 266/4/3 267/4/3
f 271/1/3 270/1/3 269/1/3
f 272/1/3 270/1/3 271/1/3
f 275/5/3 274/5/3 273/5/3
f 276/5/3 274/5/3 275/5/3
f 277/7/4 278/7/4 279/7/4
f 279/7/4 278/7/4 280/7/4
f 281/5/4 282/5/4 283/5/4
f 283/5/4 282/5/4 284/5/4
f 285/1/4 286/1/4 287/1/4
f 287/1/4 286/1/4 288/1/4
f 289/2/4 290/2/4 291/2/4
f 291/2/4 290/2/4 292/2/4
f 293/4/4 294/4/4 297/4/4
f 297/4/4 294/4/4 298/4/4
f 295/2/4 296/2/4 299/2/4
f 299/2/4 296/2/4 300/2/4
f 301/4/4 302/4/4 303/4/4
f 303/4/4 302/4/4 304/4/4
f 305/4/4 306/4/4 307/4/4
f 307/4/4 306/4/4 308/4/4
f 309/4/4 310/4/4 315/4/4
f 315/4/4 310/4/4 316/4/4
f 311/7/4 312/7/4 319/7/4
f 319/7/4 312/7/4 320/7/4
f 317/1/4 318/1/4 323/1/4
f 323/1/4 318/1/4 324/1/4
f 321/4/4 322/4/4 325/4/4
f 325/4/4 322/4/4 326/4/4
f 313/4/4 314/4/4 327/4/4
f 327/4/4 314/4/4 328/4/4
f 329/1/4 330/1/4 333/1/4
f 333/1/4 330/1/4 334/1/4
f 331/4/4 332/4/4 337/4/4
f 337/4/4 332/4/4 338/4/4
f 335/7/4 336/7/4 339/7/4
f 339/7/4 336/7/4 340/7/4
f 341/1/4 342/1/4 343/1/4
f 343/1/4 342/1/4 344/1/4
f 345/5/4 346/5/4 347/5/4
f 347/5/4 346/5/4 348/5/4
f 349/4/4 350/4/4 352/4/4
f 352/4/4 350/4/4 353/4/4
f 351/7/4 352/7/4 355/7/4
f 355/7/4 352/7/4 356/7/4
f 354/1/4 355/1/4 361/1/4
f 361/1/4 355/1/4 362/1/4
f 357/4/4 358/4/4 364/4/4
f 364/4/4 358/4/4 365/4/4
f 359/4/4 360/4/4 366/4/4
f 366/4/4 360/4/4 367/4/4
f 362/7/4 363/7/4 368/7/4
f 368/7/4 363/7/4 369/7/4
f 369/4/4 370/4/4 371/4/4
f 371/4/4 370/4/4 372/4/4
f 373/4/4 374/4/4 376/4/4
f 374/3/4 375/3/4 377/3/4
f 376/4/4 374/4/4 377/4/4
f 377/3/4 375/3/4 378/3/4
f 379/4/4 380/4/4 382/4/4
f 381/7/4 382/7/4 383/7/4
f 382/4/4 380/4/4 384/4/4
f 383/7/4 382/7/4 384/7/4
f 384/4/4 380/4/4 385/4/4
f 385/4/4 380/4/4 386/4/4
f 389/5/5 388/5/5 387/5/5
f 390/5/5 388/5/5 389/5/5
f 393/5/5 392/5/5 391/5/5
f 394/5/5 392/5/5 393/5/5
f 397/4/5 396/4/5 395/4/5
f 398/4/5 396/4/5 397/4/5
f 401/4/5 397/4/5 395/4/5
f 403/4/5 400/4/5 399/4/5
f 404/4/5 400/4/5 403/4/5
f 405/4/5 402/4/5 401/4/5
f 405/4/5 401/4/5 395/4/5
f 406/4/5 402/4/5 405/4/5
f 408/4/5 400/4/5 404/4/5
f 409/4/5 408/4/5 407/4/5
f 410/4/5 400/4/5 408/4/5
f 410/4/5 408/4/5 409/4/5
f 413/4/5 412/4/5 411/4/5
f 414/4/5 412/4/5 413/4/5
f 415/4/5 412/4/5 414/4/5
f 417/4/5 415/4/5 414/4/5
f 418/1/5 416/1/5 415/1/5
f 418/4/5 415/4/5 417/4/5
f 419/1/5 416/1/5 418/1/5
f 420/1/5 416/1/5 419/1/5
f 423/1/5 422/1/5 421/1/5
f 424/4/5 417/4/5 414/4/5
f 425/1/5 423/1/5 421/1/5
f 426/4/5 424/4/5 423/4/5
f 426/1/5 423/1/5 425/1/5
f 427/4/5 417/4/5 424/4/5
f 427/4/5 424/4/5 426/4/5
f 429/4/5 427/4/5 426/4/5
f 429/4/5 428/4/5 427/4/5
f 430/4/5 428/4/5 429/4/5
f 435/4/5 432/4/5 431/4/5
f 436/4/5 432/4/5 435/4/5
f 437/4/5 434/4/5 433/4/5
f 438/4/5 434/4/5 437/4/5
f 441/4/5 440/4/5 439/4/5
f 442/4/5 440/4/5 441/4/5
f 445/4/5 444/4/5 443/4/5
f 446/4/5 444/4/5 445/4/5
f 451/2/5 448/2/5 447/2/5
f 452/2/5 448/2/5 451/2/5
f 453/2/5 450/2/5 449/2/5
f 454/2/5 450/2/5 453/2/5
f 459/7/5 456/7/5 455/7/5
f 460/7/5 456/7/5 459/7/5
f 461/7/5 458/7/5 457/7/5
f 462/7/5 458/7/5 461/7/5
f 463/7/5 461/7/5 460/7/5
f 464/7/5 461/7/5 463/7/5
f 469/7/5 466/7/5 465/7/5
f 470/7/5 466/7/5 469/7/5
f 471/7/5 469/7/5 465/7/5
f 472/7/5 469/7/5 471/7/5
f 473/7/5 468/7/5 467/7/5
f 474/7/5 468/7/5 473/7/5
f 479/7/5 476/7/5 475/7/5
f 480/7/5 476/7/5 479/7/5
f 481/7/5 478/7/5 477/7/5
f 482/7/5 478/7/5 481/7/5
f 485/4/5 484/4/5 483/4/5
f 486/4/5 484/4/5 485/4/5
f 487/4/5 484/4/5 486/4/5
f 488/4/5 484/4/5 487/4/5
f 491/4/5 490/4/5 489/4/5
f 492/4/5 490/4/5 491/4/5
f 497/4/5 494/4/5 493/4/5
f 498/4/5 494/4/5 497/4/5
f 501/4/5 496/4/5 495/4/5
f 502/4/5 496/4/5 501/4/5
f 503/4/5 499/4/5 498/4/5
f 504/4/5 499/4/5 503/4/5
f 505/4/5 501/4/5 500/4/5
f 506/4/5 501/4/5 505/4/5
f 507/1/6 508/1/6 509/1/6
f 509/1/6 508/1/6 510/1/6
f 511/1/6 512/1/6 513/1/6
f 513/1/6 512/1/6 514/1/6
f 515/4/6 516/4/6 517/4/6
f 517/4/6 516/4/6 518/4/6
f 519/4/6 520/4/6 521/4/6
f 521/4/6 520/4/6 522/4/6
f 523/3/6 524/3/6 527/3/6
f 524/4/6 525/4/6 528/4/6
f 527/3/6 524/3/6 528/3/6
f 525/3/6 526/3/6 529/3/6
f 528/4/6 525/4/6 529/4/6
f 529/3/6 526/3/6 530/3/6
f 531/4/6 532/4/6 535/4/6
f 535/4/6 532/4/6 536/4/6
f 533/4/6 534/4/6 537/4/6
f 537/4/6 534/4/6 538/4/6
f 539/3/6 540/3/6 543/3/6
f 541/3/6 542/3/6 544/3/6
f 539/3/6 543/3/6 545/3/6
f 543/3/6 544/3/6 545/3/6
f 544/3/6 542/3/6 546/3/6
f 545/3/6 544/3/6 546/3/6
f 547/4/6 548/4/6 549/4/6
f 549/4/6 548/4/6 550/4/6
f 547/4/6 549/4/6 551/4/6
f 550/4/6 548/4/6 554/4/6
f 551/4/6 552/4/6 555/4/6
f 547/4/6 551/4/6 555/4/6
f 555/4/6 552/4/6 556/4/6
f 556/4/6 552/4/6 557/4/6
f 553/4/6 554/4/6 558/4/6
f 554/4/6 548/4/6 559/4/6
f 558/4/6 554/4/6 559/4/6
f 559/4/6 548/4/6 560/4/6
f 556/4/6 557/4/6 561/4/6
f 557/4/6 558/4/6 561/4/6
f 558/4/6 559/4/6 561/4/6
f 561/4/6 559/4/6 562/4/6
f 563/4/6 564/4/6 565/4/6
f 565/4/6 564/4/6 566/4/6
f 566/4/6 564/4/6 567/4/6
f 567/4/6 564/4/6 568/4/6
f 566/4/6 567/4/6 569/4/6
f 569/4/6 567/4/6 570/4/6
